<?xml version="1.0" encoding="UTF-8"?>
<svg width="281px" height="363px" viewBox="0 0 281 363" version="1.1" xmlns="http://www.w3.org/2000/svg" xmlns:xlink="http://www.w3.org/1999/xlink">
    <!-- Generator: Sketch 50.2 (55047) - http://www.bohemiancoding.com/sketch -->
    <title>Artboard 1</title>
    <desc>Created with Sketch.</desc>
    <defs></defs>
    <g id="Artboard-1" stroke="none" stroke-width="1" fill="none" fill-rule="evenodd">
        <path d="M234.1396,236.5999 C228.2226,236.8939 222.4146,236.4319 216.7566,235.3669 C216.3276,237.0219 215.0816,238.4259 213.3316,238.9769 C209.3226,240.2449 205.4816,241.1859 201.7946,241.8439 L213.7136,337.8419 L213.7036,337.8429 C213.7176,337.9489 213.7266,338.0549 213.7336,338.1629 C213.7796,338.9529 213.9196,339.9839 214.1266,341.1999 C214.3386,342.4539 214.6366,343.9349 214.9876,345.5749 L214.9816,345.5759 C215.5056,348.0379 214.1506,350.5709 211.7176,351.4519 C201.2936,355.2559 190.4796,358.1819 179.3686,360.1369 C168.4816,362.0529 157.2866,363.0529 145.8756,363.0529 C137.9396,363.0529 130.1026,362.5649 122.3966,361.6229 C114.5976,360.6699 106.8966,359.2309 99.3266,357.3469 L99.3276,357.3429 C99.1716,357.3049 99.0176,357.2599 98.8636,357.2059 C96.1946,356.2749 94.7856,353.3559 95.7156,350.6869 C98.5826,342.4489 101.4316,334.2609 103.5526,327.7109 C105.5706,321.4769 106.9246,316.8549 106.9666,315.4099 C107.1776,308.1179 100.6296,300.1399 94.3126,292.4459 C82.7396,278.3489 71.7736,264.9899 89.4546,250.4799 C94.1336,246.6409 99.2466,243.3549 103.9596,241.3129 C104.7656,240.9629 105.5666,240.6489 106.3576,240.3719 C104.6806,237.5759 103.1816,234.5349 101.7016,231.5329 C99.9316,227.9409 98.1886,224.4089 96.3586,221.8309 C95.8766,221.2329 95.5226,220.5169 95.3466,219.7179 L94.4526,215.6579 C94.3506,216.1179 94.2436,216.5819 94.1326,217.0489 L94.1146,217.0439 L94.1136,217.0489 C93.5346,219.4629 93.0346,221.4719 92.6046,223.0089 C92.1266,224.7239 91.6686,226.1469 91.1946,227.3029 C90.9266,228.0369 90.4846,228.7219 89.8756,229.2879 C89.6886,229.4769 89.4886,229.6499 89.2786,229.8049 L87.3596,231.5599 C86.1666,232.8549 84.3406,233.5049 82.4956,233.1059 C79.0886,232.3669 76.3396,229.0519 71.8056,223.5009 C71.7266,223.4159 71.6486,223.3279 71.5746,223.2379 L69.5866,220.8089 L69.5976,220.7999 C62.3636,212.0039 51.7416,203.9529 41.7016,196.3439 C25.7666,184.2669 11.1646,173.1989 10.3176,159.4649 C9.5896,147.7009 16.7316,138.2719 24.7946,127.6279 C29.9126,120.8719 35.4476,113.5679 39.0726,105.2319 C44.5406,92.6659 50.1096,84.4569 55.8946,78.5839 C61.7946,72.5959 67.7626,69.1379 74.0306,66.0309 C76.7716,64.6759 80.7436,63.7309 84.6026,63.3669 C85.3436,63.2969 88.7716,62.8399 89.5116,62.8139 C88.5496,59.0339 87.0826,52.6099 89.4966,52.1409 C93.4726,51.2739 96.3406,51.1589 98.5656,51.7049 C98.8746,51.3969 99.2306,51.1229 99.6266,50.8959 C103.3746,48.7359 107.5166,46.9249 112.1406,45.9829 C116.8506,45.0249 121.9966,44.9649 127.6376,46.3389 C129.4216,46.7529 130.9106,48.1139 131.4196,49.9689 C131.4586,50.1019 131.4936,50.2359 131.5216,50.3729 C131.9436,52.3549 133.2026,54.7699 134.5706,56.6729 C135.1666,57.5019 133.2126,58.6199 133.9096,58.5499 L134.0146,58.5269 C139.7306,57.3179 143.8016,57.0729 148.9996,56.7689 L149.1026,56.7629 L151.7586,56.6029 C156.9156,56.2819 161.9136,56.3359 166.5356,56.8349 C171.0586,57.3249 175.2396,58.2349 178.8866,59.6249 C192.2286,64.7039 202.1436,72.9449 209.1006,83.2759 C216.6606,94.4999 220.6516,108.1199 221.7046,122.7499 C222.0766,127.8839 222.6346,132.6429 223.9936,138.2389 C225.3836,143.9619 227.6236,150.6779 231.3506,159.6879 L231.3476,159.6899 C231.6006,160.3079 231.7346,160.9749 231.7326,161.6509 C239.7526,165.6359 248.0126,168.3679 255.6166,169.7719 C266.4856,171.7809 273.5726,178.2179 277.4736,186.2059 C279.8846,191.1439 281.0316,196.7019 281.0696,202.1419 C281.1076,207.5619 280.0306,212.8899 277.9936,217.3879 C274.9306,224.1519 269.7156,229.1999 262.7606,230.4679 C262.3056,230.5619 261.8296,230.5959 261.3436,230.5599 C260.4096,230.4909 259.5526,230.1749 258.8316,229.6809 C253.6446,233.7749 245.5846,236.0309 234.1396,236.5999" id="Fill-1" fill="#050101"></path>
        <path d="M75.2314,130.7996 C74.8104,129.6696 74.3884,128.4896 73.9674,127.2496 C70.1184,115.9176 62.7754,85.5236 76.7914,72.2786 C68.1224,85.5746 73.3334,110.4226 77.1534,122.9266 C76.5594,125.2936 75.8814,128.1156 75.2314,130.7996 M211.7874,234.0836 C189.6344,240.7526 145.1244,218.3206 133.7844,188.4606 C137.7714,187.2326 142.8914,185.7906 148.0444,184.3876 C164.4694,203.8856 197.2634,233.3016 233.9004,231.4866 C262.4064,230.0706 266.1264,218.1996 255.3114,193.0986 C264.0434,201.7576 262.7164,212.3636 261.7244,225.4456 C280.3334,222.2356 283.3244,180.0956 254.6944,174.8066 C226.8364,169.6556 190.6624,147.7126 185.6884,112.0976 C193.5274,136.8996 210.3274,153.8246 226.6184,161.6336 C218.9504,143.0986 217.3654,133.8316 216.5904,123.1126 C214.6994,96.8506 202.8834,74.2466 177.0614,64.4196 C170.3764,61.8706 161.5494,61.1246 152.0594,61.7176 C145.6494,62.1186 141.3724,62.2046 135.0584,63.5416 C132.9494,63.9886 127.5754,56.7106 126.4844,51.3256 C116.7414,48.9386 108.8094,51.5026 102.1734,55.3276 C105.2124,60.0086 104.7794,64.4496 104.9384,67.5206 C100.3524,59.4116 99.8964,55.1226 90.5794,57.1546 L93.5924,68.9906 C89.3314,67.5756 80.6334,68.4786 76.2974,70.6236 C64.6194,76.4136 54.1464,83.4196 43.7654,107.2776 C34.4084,128.7916 14.3864,142.2856 15.4314,159.1636 C16.6134,178.3376 54.7724,194.7106 73.5574,217.5596 C78.7404,223.8586 81.5834,227.6576 83.5794,228.0916 L86.2244,225.6726 L86.2274,225.6746 L86.3814,225.5356 C87.2244,223.5466 88.0564,220.3736 89.1394,215.8656 C90.3864,210.6346 90.9764,205.9676 91.6804,200.7286 L96.1784,199.6246 L108.5114,207.7456 C113.7864,214.9996 109.4694,238.7666 115.9694,244.3456 C110.5064,242.8176 100.9734,247.6466 92.7044,254.4316 C69.3874,273.5646 112.7304,293.1746 112.0804,315.5506 C111.9634,319.5636 106.2974,335.8596 100.5484,352.3726 C115.0634,355.9866 130.2434,357.9186 145.8764,357.9186 C168.3934,357.9186 189.9804,353.9346 209.9724,346.6376 C209.2554,343.2846 208.7384,340.4596 208.6194,338.4636 L196.6854,242.3436 C191.4654,242.7936 178.9854,243.4776 173.9604,242.0766 C149.9764,235.3976 137.5414,219.2786 127.3174,197.8896 C143.8104,218.6276 166.7954,248.3036 211.7874,234.0836" id="Fill-3" fill="#F5DABC"></path>
        <path d="M79.8281,123.0637 C74.5471,107.5557 73.2131,91.1857 77.8511,73.5017 C82.6601,73.8247 86.7121,75.2577 89.9551,77.8707 L79.8281,123.0637 Z" id="Fill-5" fill="#E29798"></path>
        <path d="M249.29,94.4412 L239.608,84.9802 L239.657,85.2622 L239.656,85.2622 L239.659,85.2802 C239.958,87.0152 240.234,88.8332 240.485,90.7002 C241.003,94.5542 241.407,98.4542 241.715,102.2692 C242.066,106.6332 242.31,111.0452 242.471,115.2582 C242.517,116.4892 242.477,118.5982 242.432,120.9602 C242.355,124.9352 242.266,129.7212 242.391,130.5272 L242.429,130.6182 L242.761,131.4602 C244.343,135.4522 246.142,140.0002 247.956,142.4052 C248.241,142.7862 247.651,143.6382 247.985,143.3862 C253.746,139.0462 258.071,134.0102 260.531,128.5232 C262.799,123.4612 263.494,117.9452 262.267,112.1712 C260.338,103.1032 258.216,101.4592 253.531,97.8362 C252.474,97.0202 251.298,96.1082 249.761,94.8372 C249.598,94.7182 249.438,94.5872 249.29,94.4412 Z M196.393,63.0642 C195.648,63.3572 194.904,63.6972 194.16,64.0802 C196.7,65.7932 199.078,67.6562 201.296,69.6532 C205.276,73.2402 208.714,77.2392 211.631,81.5732 C215.496,87.3112 218.466,93.6342 220.614,100.3672 C222.851,107.3712 224.2,114.8172 224.756,122.5182 C224.83,123.5002 224.898,124.4462 224.962,125.2422 C226.836,124.9112 228.895,124.4852 230.557,124.1392 C230.414,114.9102 229.849,103.4682 228.495,93.4222 C227.408,85.3542 225.843,78.2442 223.632,74.1112 C220.576,68.3982 216.467,64.5232 211.799,62.6572 C207.188,60.8142 201.889,60.8952 196.393,63.0642 Z M183.965,60.8862 C185.525,59.7292 187.066,58.6932 188.594,57.8002 C190.188,56.8672 191.782,56.0742 193.386,55.4412 C200.866,52.4872 208.239,52.4442 214.814,55.0732 C224.93,59.8382 237.693,71.6742 237.851,71.8282 L254.964,88.5482 C256.138,89.5162 257.389,90.4842 258.519,91.3572 C264.85,96.2562 267.719,98.4762 270.275,110.4982 C271.875,118.0252 270.965,125.2272 267.999,131.8472 C264.952,138.6502 259.75,144.7692 252.907,149.9242 C248.382,153.3342 244.626,151.5902 241.417,147.3262 C238.916,144.0042 236.904,138.9282 235.139,134.4662 L234.806,133.6262 C234.667,133.2742 234.58,132.9132 234.542,132.5532 C234.494,132.2892 234.452,132.0032 234.416,131.6912 L232.659,132.0572 C229.367,132.7462 224.3,133.8052 221.54,133.9592 C219.28,134.0882 217.344,132.3612 217.216,130.1012 L217.211,130.0042 C217.072,128.7712 216.963,127.6752 216.876,126.6692 C216.749,125.2282 216.666,124.1282 216.594,123.1122 C216.082,116.0282 214.85,109.2132 212.819,102.8492 C210.9,96.8352 208.264,91.2132 204.849,86.1432 C202.275,82.3212 199.276,78.8212 195.829,75.7162 C192.505,72.7232 188.728,70.0582 184.475,67.7842 C182.482,66.7242 181.726,64.2472 182.788,62.2532 C183.083,61.6982 183.49,61.2372 183.965,60.8872 L183.965,60.8862 Z" id="Fill-7" fill="#050101"></path>
        <path d="M231.5625,71.4021 C232.0495,73.0391 234.3035,79.3421 234.7085,81.1941 C235.3925,84.3221 235.9635,87.7161 236.4405,91.2521 C237.4935,99.0721 238.0885,107.6381 238.3865,115.4251 C238.5105,118.7151 237.9165,130.3581 238.6185,132.1231 C241.7015,139.8931 245.5925,150.3111 250.4465,146.6551 C262.7395,137.3941 269.1725,124.9831 266.2705,111.3351 C263.5605,98.5841 260.4775,98.4261 252.1545,91.5211 L231.5625,71.4021 Z M186.3965,64.1761 C189.2605,62.0521 192.0585,60.3701 194.8895,59.2531 C207.8415,54.1391 220.1745,58.9851 227.2365,72.1851 C233.0415,83.0291 234.5975,110.4641 234.6815,127.4891 C233.5155,127.6211 224.9415,129.6661 221.3055,129.8681 C221.0255,127.4711 220.8415,125.1241 220.6735,122.8141 C219.6325,108.3731 215.6965,94.9301 208.2405,83.8581 C202.8455,75.8491 195.6395,69.1161 186.3965,64.1761 Z" id="Fill-9" fill="#F5DABC"></path>
        <path d="M167.2656,155.8347 C162.2456,163.9087 153.0446,168.4167 141.8916,171.5917 C120.9646,177.5527 101.0876,176.5737 93.5226,146.4727 C86.9436,120.2907 94.2836,94.7637 110.0796,84.6407 C95.9786,95.3427 89.5646,117.7237 95.5296,140.4907 C98.6326,152.3397 104.0456,159.2977 110.8786,162.9387 L110.5826,162.6857 C119.8666,170.7337 132.8756,169.8577 146.3496,166.1377 C154.8386,163.7927 162.1616,160.6917 167.2656,155.8347" id="Fill-11" fill="#DCBB93"></path>
        <path d="M122.1567,85.1907 C142.3317,79.6177 164.4767,97.4737 171.6147,125.0657 C178.7557,152.6577 165.1727,162.4957 144.9937,168.0687 C124.8137,173.6397 105.6827,172.8357 98.5457,145.2437 C91.4067,117.6497 101.9777,90.7627 122.1567,85.1907" id="Fill-13" fill="#FEFEFE"></path>
        <path d="M119.6128,81.1795 C131.2098,78.0235 143.3678,81.8705 153.2388,90.5255 C157.5448,94.5635 160.9228,99.5625 162.9768,105.2535 C162.9878,105.2685 146.4388,78.4855 122.1548,85.1875 C101.9778,90.7625 91.4078,117.6505 98.5428,145.2465 C100.9658,154.6015 104.7658,160.8775 109.5208,164.8695 C102.6868,161.2275 97.2738,154.2705 94.1718,142.4225 C86.8368,114.4185 98.2258,86.9995 119.6128,81.1795" id="Fill-15" fill="#050101"></path>
        <path d="M109.521,164.8684 C118.781,172.6464 131.66,171.7504 144.993,168.0664 C154.217,165.5204 162.063,162.0794 167.182,156.4624 C162.363,159.9714 156.175,162.4084 149.19,164.3354 C129.014,169.9094 109.88,169.1044 102.742,141.5124 C97.479,121.1664 101.844,101.2034 112.59,89.8844 C98.852,100.0824 92.64,122.4224 98.543,145.2444 C100.965,154.6024 104.767,160.8744 109.521,164.8684" id="Fill-17" fill="#E7E7E9"></path>
        <path d="M142.4843,123.3992 C140.4563,123.5052 138.6733,121.4662 138.4773,118.8452 C138.2823,116.2262 139.7703,114.0172 141.7873,113.9122 C143.8043,113.7982 145.5973,115.8472 145.7953,118.4592 C145.9823,121.0792 144.5023,123.2862 142.4843,123.3992 M112.8313,133.0132 C113.9033,147.7412 123.9823,159.1992 135.3273,158.5962 C146.6913,158.0022 155.0283,145.5772 153.9593,130.8572 C152.8973,116.1272 142.8263,104.6782 131.4633,105.2732 C120.1093,105.8782 111.7693,118.2922 112.8313,133.0132 M117.5113,140.9242 C120.6603,149.4052 127.5243,155.2032 135.0563,154.8142 C142.5983,154.4172 148.5683,147.9392 150.4673,139.1902 C147.8753,146.9782 142.0553,152.5022 134.9103,152.8772 C127.7793,153.2452 121.2103,148.3822 117.5113,140.9242 M123.5083,139.7862 C124.7063,139.7242 125.7893,140.9382 125.8983,142.4992 C126.0123,144.0722 125.1323,145.3952 123.9133,145.4582 C122.7153,145.5182 121.6433,144.3052 121.5303,142.7342 C121.4113,141.1722 122.3023,139.8492 123.5083,139.7862" id="Fill-19" fill="#050101"></path>
        <path d="M98.2397,76.8943 C107.9917,67.5573 120.8687,63.8853 131.2127,66.4873 C121.8087,67.5523 111.2967,72.5743 102.4607,81.0363 C93.6237,89.4973 88.3127,99.6233 87.1007,108.7273 C84.5447,98.6683 88.4907,86.2303 98.2397,76.8943" id="Fill-21" fill="#050101"></path>
        <path d="M247.1113,178.6526 C236.0423,178.1406 230.3363,178.4416 225.0443,181.2566 C217.0563,185.5026 216.8153,196.1196 229.7923,212.5896 C236.0393,220.5186 247.8273,221.6586 261.3613,217.3386 C271.9923,213.9436 278.5073,204.5936 276.4213,189.4646 C273.1203,165.5286 259.5593,179.2296 247.1113,178.6526" id="Fill-23" fill="#050101"></path>
        <path d="M230.0381,185.2908 C234.6971,182.8128 239.7221,182.5488 249.4641,182.9988 C253.8641,183.2038 258.4221,181.3828 262.4901,180.4908 C263.7121,180.2238 264.8891,180.0398 266.0031,180.0208 C264.1121,178.2008 261.7141,178.0538 259.0431,178.5088 C255.0291,179.1938 250.3971,181.2438 245.9411,181.0368 C236.9661,180.6218 232.3371,180.8648 228.0471,183.1478 C222.7701,185.9528 221.6621,192.1858 227.1181,201.6178 C223.4851,193.4468 225.0371,187.9508 230.0381,185.2908" id="Fill-25" fill="#FEFEFE"></path>
        <path d="M145.2216,71.7317 C158.4216,77.4577 169.7306,86.1497 177.9676,99.6457 C180.4556,103.7237 183.7386,106.7917 182.4006,98.4697 C179.4616,80.1567 177.1516,75.2717 172.9826,66.3537 C171.0986,62.3317 169.6926,61.6457 168.8056,66.1217 C168.3776,68.2677 167.9696,69.7517 166.6796,69.8707 C161.9216,70.3117 155.3326,68.1407 148.4956,67.1787 C137.5406,65.6337 137.1426,68.2297 145.2216,71.7317" id="Fill-27" fill="#FEF9F5"></path>
        <path d="M190.9062,66.8284 C191.9482,66.3144 192.9902,65.8644 194.0342,65.4814 C207.0372,60.7154 219.2692,64.8514 226.1102,76.5274 C231.7342,86.1214 232.8632,110.5964 232.6832,125.7954 C226.7532,125.9434 223.1452,126.2644 220.9502,126.3434 C220.8472,125.1564 220.7602,123.9814 220.6742,122.8144 C219.6332,108.3734 215.6962,94.9304 208.2402,83.8574 L208.0282,83.5454 L207.9182,83.3834 L207.8152,83.2364 L207.6012,82.9284 L207.5902,82.9114 L207.3852,82.6204 L207.2592,82.4414 L207.1672,82.3144 L206.9452,82.0094 L206.7452,81.7334 L206.7232,81.7064 L206.5842,81.5154 L206.5002,81.4034 L206.2732,81.1034 L206.2402,81.0574 L206.0462,80.8034 L205.8902,80.5994 L205.8162,80.5044 L205.5862,80.2084 L205.5372,80.1484 L205.3522,79.9134 L205.1792,79.6984 L205.1172,79.6194 L204.8802,79.3274 L204.8182,79.2514 L204.6402,79.0354 L204.4522,78.8084 L204.4002,78.7454 L204.1572,78.4574 L204.0832,78.3694 L203.9132,78.1704 L203.7072,77.9314 L203.6662,77.8854 L203.4182,77.6004 L203.1672,77.3174 L202.9452,77.0684 L202.9162,77.0364 L202.6622,76.7554 L202.5572,76.6424 L202.4042,76.4784 L202.1642,76.2174 L202.1462,76.2014 L201.8872,75.9274 L201.7662,75.7984 L201.6262,75.6514 L201.3662,75.3824 L201.3622,75.3774 L201.0962,75.1074 L200.9592,74.9694 L200.8302,74.8384 L200.5602,74.5724 L200.3542,74.3694 L200.2892,74.3054 L200.1352,74.1544 L200.0152,74.0394 L199.7402,73.7754 L199.7162,73.7514 L199.4642,73.5134 L199.2922,73.3524 L199.1832,73.2534 L198.9032,72.9944 L198.8632,72.9574 L198.6202,72.7374 L198.4292,72.5664 L198.3362,72.4814 L197.9932,72.1784 L197.7602,71.9754 L197.5512,71.7944 L197.4682,71.7244 L197.1772,71.4744 L197.1052,71.4124 L196.8832,71.2254 L196.6532,71.0364 L196.5852,70.9804 L196.2862,70.7344 L196.1972,70.6624 L195.9862,70.4934 L195.7372,70.2934 L195.6822,70.2514 L195.3792,70.0104 L195.2722,69.9274 L195.0722,69.7724 L194.8022,69.5674 L194.7632,69.5364 L194.4532,69.3024 L194.3292,69.2084 L194.1402,69.0684 L193.8492,68.8534 L193.8252,68.8364 L193.5102,68.6074 L193.3662,68.5044 L193.1912,68.3784 L192.8792,68.1574 L192.8702,68.1524 L192.5482,67.9284 L192.3852,67.8154 L192.2242,67.7044 L191.8962,67.4824 L191.8882,67.4764 L191.5682,67.2634 L191.3852,67.1414 L191.2372,67.0444 L190.9062,66.8284 Z" id="Fill-29" fill="#E29798"></path>
        <path d="M250.7861,90.1848 C252.9751,108.7238 249.1051,126.0258 241.1321,138.2938 C243.7451,144.2838 246.8291,149.3818 250.4461,146.6558 C261.8731,138.0468 268.2381,126.7138 266.7471,114.2008 C266.6331,113.2498 266.4741,112.2958 266.2701,111.3348 C263.5591,98.5858 260.4781,98.4268 252.1541,91.5208 L250.7861,90.1848 Z" id="Fill-31" fill="#DCBB93"></path>
        <path d="M92.2475,191.0027 C69.4875,191.2897 48.1945,167.3737 43.5575,135.1957 C42.0625,124.8317 42.4685,114.8037 44.4355,105.7627 C44.2135,106.2607 43.9905,106.7647 43.7675,107.2757 C34.4085,128.7927 14.3875,142.2857 15.4305,159.1657 C16.6135,178.3367 54.7705,194.7117 73.5585,217.5587 C74.9765,219.2837 76.2215,220.8227 77.3205,222.1547 C79.1035,224.3177 80.5065,225.9397 81.6575,226.9447 C83.6385,228.6727 84.8805,228.5797 86.0445,226.2797 C86.1105,226.1477 86.1775,226.0067 86.2445,225.8597 C86.8605,224.5007 87.4625,222.5127 88.1545,219.8347 C88.4625,218.6477 88.7865,217.3267 89.1375,215.8647 C89.2315,215.4687 89.3235,215.0727 89.4145,214.6747 C89.8375,212.8197 90.2125,210.9587 90.5395,209.0957 C90.7655,207.8047 90.9685,206.5127 91.1495,205.2197 L91.7045,200.5487 C92.0155,197.3767 92.1945,194.1927 92.2475,191.0027" id="Fill-33" fill="#DCBB93"></path>
        <path d="M199,102.0242 C192.916,103.0482 188.532,108.8772 187.203,116.5602 C190.541,125.7532 194.883,133.7822 200.101,140.4542 C201.747,140.4782 203.495,140.3012 205.321,139.9922 C210.559,139.1092 215.235,137.3622 217.651,133.4002 C217.108,129.8452 216.833,126.4422 216.594,123.1122 C216.309,119.1602 215.796,115.2912 215.048,111.5362 C211.081,104.9262 204.993,101.0132 199,102.0242" id="Fill-35" fill="#FEFEFE"></path>
        <path d="M199.2441,99.9197 C194.2311,100.7847 190.2751,104.6067 188.0701,109.9567 C187.3731,111.8217 186.9841,113.8157 186.9491,115.8527 L187.2061,116.5657 C187.8351,113.1517 190.3711,103.4797 198.9991,102.0237 C204.9931,101.0127 211.0781,104.9267 215.0481,111.5377 C214.6951,109.7607 214.2891,108.0107 213.8271,106.2887 C209.8181,101.5607 204.5161,99.0087 199.2441,99.9197" id="Fill-37" fill="#050101"></path>
        <path d="M216.2597,119.4251 C214.2327,111.0861 209.2497,104.5921 203.5157,102.1611 C207.9277,103.1551 212.0807,106.5921 215.0477,111.5381 C215.5637,114.1161 215.9657,116.7491 216.2597,119.4251 M217.6517,133.4011 C215.2387,137.3641 210.5607,139.1091 205.3217,139.9921 C203.4947,140.3011 201.7477,140.4801 200.1007,140.4551 C199.8997,140.1961 199.6977,139.9371 199.4977,139.6741 C200.6387,139.6051 201.8217,139.4581 203.0367,139.2531 C210.0497,138.0721 216.0597,135.3401 216.9747,127.8111 C217.1477,129.6391 217.3607,131.4991 217.6517,133.4011" id="Fill-39" fill="#E7E7E9"></path>
        <path d="M204.081,119.6931 C203.179,119.8011 202.321,118.9431 202.155,117.7791 C201.988,116.6131 202.587,115.5831 203.486,115.4771 C204.385,115.3651 205.247,116.2271 205.413,117.3861 C205.574,118.5511 204.979,119.5831 204.081,119.6931 M191.121,124.8761 C192.041,131.4241 196.887,136.2411 201.937,135.6331 C206.995,135.0261 210.35,129.2261 209.433,122.6811 C208.516,116.1331 203.674,111.3181 198.615,111.9251 C193.561,112.5351 190.208,118.3311 191.121,124.8761 M193.449,128.2721 C195.11,131.9651 198.35,134.3501 201.703,133.9511 C205.062,133.5471 207.534,130.4761 208.12,126.5101 C207.196,130.0671 204.761,132.7071 201.58,133.0901 C198.406,133.4681 195.325,131.4911 193.449,128.2721 M196.095,127.5831 C196.628,127.5191 197.148,128.0291 197.244,128.7231 C197.343,129.4221 196.987,130.0411 196.444,130.1051 C195.912,130.1671 195.395,129.6571 195.3,128.9581 C195.199,128.2641 195.557,127.6471 196.095,127.5831" id="Fill-41" fill="#050101"></path>
        <path d="M205.374,94.0613 C199.652,92.1103 193.729,93.0493 190.02,96.0583 C194.041,94.7143 199.258,94.7713 204.442,96.5383 C209.627,98.3063 213.694,101.4153 215.906,104.8843 C215.046,100.3163 211.096,96.0113 205.374,94.0613" id="Fill-43" fill="#050101"></path>
        <path d="M186.0088,223.0188 C175.0578,217.1048 165.7298,209.4538 158.0458,201.5658 C154.7428,201.8708 151.5128,202.2818 148.3698,202.7928 C153.6028,210.9038 161.1548,217.3408 169.5208,221.9348 C180.3908,227.9038 192.5448,230.7538 202.7608,230.1288 C196.8148,228.2608 191.2288,225.8388 186.0088,223.0188" id="Fill-45" fill="#E50113"></path>
        <path d="M266.5058,215.0315 C265.2068,215.8125 263.8108,216.4735 262.3238,217.0105 C262.1858,219.7015 261.9448,222.5105 261.7228,225.4445 C270.7078,223.8955 276.0518,213.2715 275.9568,202.1025 C274.8968,206.2585 272.8938,209.6465 270.1568,212.2545 C269.0548,213.3065 267.8318,214.2315 266.5058,215.0315" id="Fill-47" fill="#DCBB93"></path>
        <path d="M98.6372,9.5877 L82.0792,13.7727 C78.1902,14.7607 75.9632,18.7567 76.9292,22.5287 C77.8972,26.3067 81.7792,28.7627 85.6742,27.7787 L95.0442,64.2677 L67.8402,185.7057 C67.0752,189.1277 67.6112,192.4767 70.0242,195.0387 C72.4372,197.6007 75.7692,198.5257 79.1692,197.7267 L192.3872,171.1267 C195.7882,170.3277 198.2322,167.8117 199.1192,164.4137 C200.0022,161.0197 198.5322,158.0847 196.5382,155.1857 L128.1622,55.8857 L118.7902,19.3997 C122.6842,18.4087 124.9042,14.4127 123.9382,10.6367 C122.9492,6.7937 119.0102,4.4327 115.1972,5.3897 L98.6372,9.5877 Z M81.1772,8.6607 L97.3802,4.5667 L113.9402,0.3677 C117.2232,-0.4553 120.5672,0.1447 123.2842,1.7757 C125.8702,3.3297 127.9162,5.8217 128.8312,8.9067 C128.9332,9.1917 129.0092,9.4887 129.0592,9.7967 C129.7362,12.8977 129.1812,16.0517 127.6772,18.6527 C126.9412,19.9297 125.9732,21.0787 124.8132,22.0287 L132.8732,53.4107 L200.4292,151.7767 C202.1262,153.7087 203.3942,155.8997 204.0622,158.2907 C204.6762,160.4867 204.7782,162.7967 204.2522,165.1757 C204.2232,165.3567 204.1862,165.5377 204.1412,165.7187 C203.4652,168.3217 202.1592,170.5937 200.3562,172.3937 L200.3462,172.3867 L200.3362,172.3977 C198.5382,174.1877 196.2622,175.4867 193.6442,176.1487 L80.4272,202.7497 C77.8382,203.4037 75.2222,203.3427 72.7782,202.6257 C70.3252,201.9037 68.0892,200.5387 66.2572,198.5937 C64.4242,196.6487 63.2792,194.4217 62.7232,192.0467 C62.1592,189.6347 62.2162,187.0937 62.7822,184.5697 L89.7162,64.3397 L81.6582,32.9587 C80.2132,32.6807 78.8342,32.1487 77.5922,31.4047 C74.9872,29.8407 72.9452,27.3237 72.0372,24.2687 C71.9332,23.9837 71.8602,23.6797 71.8092,23.3687 C71.1312,20.2657 71.6922,17.1127 73.1922,14.5167 L73.2042,14.5247 L73.2122,14.5137 C74.7272,11.9017 77.1882,9.8287 80.3112,8.8907 C80.5882,8.7947 80.8792,8.7127 81.1772,8.6607 Z" id="Fill-49" fill="#050101"></path>
        <path d="M222.3008,251.9812 C219.4558,249.1262 216.5308,247.1232 213.7178,246.2482 C211.2668,246.9162 208.6728,247.4592 205.9708,247.8602 C204.1628,248.1292 202.2778,248.3332 200.3218,248.4702 C198.4468,257.7232 197.3998,271.1532 196.9638,286.1992 C196.4198,305.0312 196.8508,326.3482 197.8308,345.2652 C201.0128,344.3182 204.1508,343.2892 207.2378,342.1812 C211.2638,340.7372 215.2708,339.1302 219.2488,337.3702 C219.2458,335.1122 219.2518,332.8332 219.2568,330.5342 C219.3058,310.6282 219.3568,289.2102 213.7428,267.1982 L213.7518,267.1962 C213.1618,264.8842 214.2598,262.3992 216.4908,261.3222 C219.0378,260.0932 222.1018,261.1622 223.3308,263.7092 C227.1948,271.7362 230.2368,283.2632 232.3608,295.7792 C233.8138,304.3442 234.8498,313.4472 235.4328,322.2392 C237.0428,318.8162 238.2028,315.2012 238.9618,311.4802 C241.1968,300.5232 240.0148,288.6362 236.7558,277.9452 C233.5128,267.3042 228.2538,257.9552 222.3008,251.9812 M214.9948,236.0062 C220.0848,237.1372 225.0498,240.2332 229.5618,244.7602 C236.6358,251.8582 242.8158,262.7422 246.5448,274.9772 C250.2578,287.1612 251.5838,300.8072 248.9898,313.5252 C246.9098,323.7292 242.3268,333.3342 234.4808,341.1522 C233.0498,342.5752 230.9888,342.9792 229.2028,342.3642 C228.7438,343.6742 227.7678,344.7412 226.5178,345.3182 L226.5218,345.3262 C221.4378,347.6832 216.1528,349.8492 210.6888,351.8092 C205.3268,353.7332 199.8768,355.4192 194.3558,356.8572 C191.6188,357.5662 188.8258,355.9222 188.1168,353.1872 C188.0318,352.8602 187.9828,352.5302 187.9628,352.2042 L187.9568,352.2042 C186.7238,331.6522 186.1188,307.2972 186.7358,285.9182 C187.2528,268.0172 188.6418,252.1582 191.2498,242.2302 C191.8698,239.8722 194.0378,238.3332 196.3758,238.4142 C199.1138,238.3462 201.8328,238.1062 204.4858,237.7122 C207.2008,237.3092 209.7738,236.7402 212.1548,236.0312 C213.1158,235.7442 214.0958,235.7542 214.9948,236.0062" id="Fill-51" fill="#050101"></path>
        <path d="M41.2124,203.0515 C37.9184,199.6645 35.1244,195.9075 32.8234,191.8085 C29.9024,201.8425 25.5434,210.7935 21.3824,219.3375 C16.1874,230.0035 11.3214,239.9935 10.5324,250.0325 C8.5414,275.3545 18.9804,283.1595 33.6484,284.3125 C44.0704,285.1325 56.7344,283.0415 68.9854,281.0195 C74.7464,280.0685 80.4244,279.1295 85.5744,278.5155 L85.5754,278.5295 C87.5894,278.2915 89.6394,279.2725 90.6694,281.1635 C92.0204,283.6445 91.1044,286.7515 88.6234,288.1035 L82.6764,291.3375 C85.8494,299.9185 87.5604,308.9175 88.2844,317.8175 C88.9974,326.5925 88.7514,335.2915 88.0084,343.3925 C96.5454,346.2545 105.3974,348.5065 114.5104,350.0915 C124.6764,351.8595 135.1574,352.7835 145.8764,352.7835 C147.2604,352.7835 148.3614,352.7775 149.1994,352.7665 C148.4884,336.6065 146.9594,320.2135 144.2044,304.9985 C141.6454,290.8495 138.0264,277.7335 133.0254,266.8235 C127.9264,255.7005 123.7734,246.7295 118.3904,238.9535 C113.4504,231.8145 107.3414,225.5195 98.2304,219.1645 C94.4494,220.0415 91.4154,220.9405 88.6674,222.0675 C86.1634,223.0935 83.7944,224.3515 81.1984,225.9985 C80.8574,232.8825 77.9834,240.3105 73.9594,246.4355 C68.9904,253.9955 62.0084,259.8265 55.4544,260.6905 L55.4544,260.6895 C53.7634,260.9095 52.0014,260.2785 50.8394,258.8655 C49.0454,256.6835 49.3594,253.4595 51.5424,251.6645 C55.6774,248.2705 60.1214,242.4605 63.3984,235.2635 C65.6634,230.2885 67.3404,224.6975 67.9264,218.8485 C56.9124,215.4005 48.0214,210.0495 41.2124,203.0515 M36.1404,170.8935 C37.9974,180.8455 42.1124,189.2905 48.5534,195.9105 C54.8794,202.4115 63.5244,207.2395 74.5474,210.0995 C76.9514,210.7215 78.5114,212.9525 78.3734,215.3415 L78.3644,215.7415 C80.4834,214.5295 82.5674,213.5055 84.7754,212.6005 C88.7044,210.9905 92.8704,209.8165 98.2124,208.6655 C99.7264,208.3455 101.2284,208.7295 102.3724,209.5975 C113.5374,217.1125 120.8834,224.5655 126.8154,233.1365 C132.6724,241.5985 137.0104,250.9655 142.3314,262.5725 C147.7064,274.2975 151.5674,288.2395 154.2724,303.1925 C157.4154,320.5575 159.0094,339.3205 159.6264,357.5525 C159.7124,360.3565 157.5284,362.7035 154.7324,362.8235 L154.7324,362.8265 C153.3774,362.8885 151.9104,362.9415 150.3274,362.9795 C148.3354,363.0275 146.8284,363.0525 145.8764,363.0525 C134.6134,363.0525 123.5554,362.0745 112.7854,360.1995 C101.8064,358.2895 91.1034,355.4275 80.7684,351.7035 C78.4874,350.8875 77.1474,348.6165 77.4124,346.3085 L77.3994,346.3085 C78.3834,337.6745 78.8324,328.1785 78.0564,318.6205 C77.2924,309.2145 75.3404,299.7635 71.5334,291.0665 L71.4994,290.9855 L70.6304,291.1285 C57.7504,293.2545 44.4374,295.4515 32.8454,294.5405 C12.3254,292.9265 -2.3186,282.5795 0.3044,249.2295 C1.2464,237.2435 6.5234,226.4085 12.1564,214.8435 C18.4414,201.9395 25.2094,188.0445 25.9704,171.4825 C26.0924,168.6585 28.4824,166.4685 31.3054,166.5895 C33.7784,166.6955 35.7644,168.5405 36.1404,170.8935" id="Fill-53" fill="#050101"></path>
        <path d="M31.0849,171.7039 C35.0909,193.3979 48.9659,208.7509 73.2639,215.0529 C73.0019,232.6189 63.3889,248.5589 54.7919,255.6169 C64.6989,254.3109 76.9739,236.5559 76.0619,223.2509 C83.6739,218.0479 89.1389,215.8659 99.2749,213.6799 C120.7009,228.0309 127.2559,241.9659 137.6789,264.6979 C148.9619,289.3109 153.3839,324.3649 154.5119,357.7129 C151.6489,357.8439 148.7719,357.9189 145.8759,357.9189 C123.6249,357.9189 102.2869,354.0219 82.4939,346.8899 C84.5299,329.0289 84.3509,307.5839 76.2269,289.0209 L86.1759,283.6109 C50.5139,287.8689 1.0219,305.5199 5.4179,249.6309 C7.3259,225.3889 29.5949,204.0769 31.0849,171.7039" id="Fill-55" fill="#FEFEFE"></path>
        <path d="M82.1836,172.9812 C84.8616,173.9532 87.1096,175.6312 88.8166,178.0662 C90.1826,180.0112 91.1656,182.4282 91.7026,185.3402 L92.8706,185.4982 C97.3786,186.3462 100.9566,188.9462 103.5756,191.9922 L192.3866,171.1272 C195.7876,170.3282 198.2326,167.8122 199.1196,164.4132 C200.0016,161.0202 198.5326,158.0852 196.5376,155.1862 L166.8086,112.0092 C168.7836,116.0412 170.4116,120.4152 171.6156,125.0662 C175.4926,140.0442 173.2616,149.7902 167.1816,156.4622 C166.9786,156.6102 166.7736,156.7552 166.5656,156.9002 C166.3866,157.1572 166.2046,157.4102 166.0176,157.6582 C160.7996,164.6032 152.1756,168.6642 141.8916,171.5912 C120.9646,177.5532 101.0876,176.5732 93.5226,146.4722 C86.9436,120.2912 94.2836,94.7642 110.0796,84.6402 C106.7986,87.1302 103.9336,90.2532 101.5446,93.8652 C106.1696,87.6742 112.3086,83.1682 119.6126,81.1792 C130.1396,78.3152 141.1286,81.2202 150.4506,88.2542 L132.3906,62.0262 C130.0376,59.6702 127.2386,55.0462 126.4846,51.3262 C116.7416,48.9382 108.8096,51.5022 102.1736,55.3282 C105.2126,60.0082 104.7796,64.4502 104.9376,67.5202 C100.8076,60.2182 100.0276,56.0142 93.1096,56.7332 L95.0436,64.2672 L89.5246,88.9042 C91.5206,84.6452 94.4386,80.5342 98.2396,76.8942 C107.9926,67.5572 120.8686,63.8852 131.2126,66.4872 C121.8086,67.5522 111.2966,72.5742 102.4606,81.0362 C93.6236,89.4972 88.3126,99.6242 87.1006,108.7282 C86.6396,106.9132 86.3896,105.0212 86.3476,103.0852 L73.0386,162.4942 C74.5416,164.3282 75.9176,166.5412 77.1716,169.1192 C77.3866,169.4952 77.5546,169.9062 77.6626,170.3492 C77.8026,170.9372 77.8246,171.5232 77.7466,172.0852 C79.3136,172.1842 80.7996,172.4802 82.1836,172.9812 M167.1816,156.4622 C166.8066,156.8762 166.4156,157.2762 166.0176,157.6582 C166.4196,157.2712 166.8086,156.8722 167.1816,156.4622" id="Fill-57" fill="#DCBB93"></path>
        <path d="M97.5537,68.6233 L71.1097,191.9163 L172.8167,171.8733 L100.2387,174.5243 C91.5167,174.8423 86.6047,167.8253 87.5627,159.1453 L97.5537,68.6233 Z" id="Fill-59" fill="#FEFEFE"></path>
        <path d="M71.52,201.0047 L70.581,201.0787 C70.858,201.0817 71.174,201.0577 71.52,201.0047 M55.65,154.9347 C49.706,158.6427 44.282,163.6217 42.551,167.4677 C40.783,171.3927 42.963,179.8337 46.751,188.2427 C50.935,197.5247 56.943,206.2677 61.863,208.8817 C66.457,211.3207 69.42,212.5117 71.894,212.3687 C74.378,212.2227 77.164,210.7087 81.406,207.7427 L81.408,207.7437 C81.584,207.6227 81.766,207.5097 81.961,207.4107 C86.583,205.0507 88.989,202.6247 89.366,200.1407 C89.637,198.3527 88.95,196.2457 87.364,193.8437 C85.617,194.9577 83.582,196.1147 81.565,197.1457 C77.872,199.0317 73.939,200.6487 71.52,201.0047 C69.691,201.3607 67.747,200.5877 66.694,198.9157 C65.322,196.7407 65.975,193.8667 68.151,192.4957 C73.747,188.9857 77.792,185.2617 79.797,181.7507 C80.561,180.4157 80.991,179.1507 81.05,178.0027 C81.097,177.0917 80.871,176.2057 80.348,175.3717 C80.055,174.9027 79.674,174.4417 79.204,173.9897 C76.758,175.8957 73.498,177.9487 70.222,179.2837 C65.962,181.0177 61.348,181.8807 57.594,180.4707 L57.596,180.4687 C56.651,180.1117 55.816,179.4497 55.255,178.5187 C53.929,176.3187 54.637,173.4597 56.837,172.1327 C59.822,170.3377 62.79,168.8207 65.444,167.4657 C70.131,165.0707 73.561,163.3187 73.886,161.8137 C74.349,159.6737 73.765,157.4367 72.782,155.4877 C71.308,152.5657 69.452,150.5647 68.691,150.3627 C65.913,149.6307 60.768,151.7427 55.65,154.9347 M34.065,163.6547 C36.541,158.1537 43.409,151.5877 50.713,147.0317 C57.755,142.6407 65.581,139.9337 71.07,141.3797 C73.603,142.0467 78.42,146.0297 81.066,151.2777 C82.894,154.8977 83.936,159.2517 82.954,163.7837 C82.869,164.1797 82.764,164.5577 82.645,164.9237 C85.12,166.5497 86.965,168.3927 88.227,170.4077 C89.807,172.9267 90.481,175.6507 90.336,178.4947 C90.26,179.9647 89.955,181.4507 89.437,182.9357 C89.986,183.0797 90.518,183.3287 91.004,183.6847 C91.371,183.9557 91.686,184.2697 91.947,184.6147 C97.078,190.4747 99.377,196.1207 98.556,201.5297 C97.722,207.0317 93.798,211.7197 86.504,215.5147 C80.947,219.3787 76.931,221.3717 72.437,221.6327 C67.866,221.8977 63.586,220.3347 57.476,217.0887 C50.775,213.5287 43.204,202.9857 38.29,192.0767 C33.533,181.5167 31.126,170.1837 34.065,163.6547" id="Fill-61" fill="#050101"></path>
        <path d="M38.3071,165.5618 C42.3431,156.5968 61.2421,143.5948 69.8811,145.8718 C72.6521,146.6018 80.1981,154.5708 78.4211,162.7978 C77.2851,168.0438 69.0261,170.2338 59.2381,176.1178 C65.6191,178.5108 78.1181,170.0578 78.9401,168.0958 C91.2261,175.1118 85.7811,186.9368 70.6331,196.4338 C73.6571,196.4698 86.7051,189.5248 88.2451,187.4338 C96.9271,197.2098 96.1941,205.3568 84.0801,211.5408 C74.1491,218.4848 70.3731,218.6708 59.6691,212.9868 C48.4001,206.9968 33.4491,176.3548 38.3071,165.5618" id="Fill-63" fill="#F5DABC"></path>
        <path d="M66.7324,152.2117 C69.2054,155.1017 70.7554,158.5177 71.4354,162.1787 C71.5504,162.7947 71.6404,163.4187 71.7064,164.0477 C71.8094,165.0517 71.8524,166.0687 71.8314,167.0957 C71.8224,167.6107 71.7974,168.1287 71.7554,168.6477 C71.7344,168.9107 71.7114,169.1737 71.6824,169.4387 C72.0544,169.2317 72.4154,169.0277 72.7614,168.8227 C74.5624,167.7627 76.0214,166.7077 77.0264,165.5207 C77.7254,164.6927 78.2034,163.8027 78.4204,162.7987 C78.6034,161.9547 78.6874,161.1107 78.6894,160.2767 C78.6984,153.0097 72.3664,146.5267 69.8814,145.8717 C67.5234,145.2487 64.4014,145.7667 61.0274,147.0277 C60.8374,147.0997 60.6494,147.1707 60.4594,147.2457 C60.7884,147.4167 61.1164,147.5957 61.4374,147.7847 C62.7564,148.5587 63.9934,149.4767 65.1274,150.5337 C65.6894,151.0577 66.2244,151.6157 66.7324,152.2117" id="Fill-65" fill="#DCBB93"></path>
        <path d="M78.9394,168.095 C78.7364,168.58 77.8224,169.46 76.4624,170.475 C76.2894,170.606 76.1064,170.737 75.9194,170.872 C75.5454,171.138 75.1444,171.41 74.7214,171.686 C74.9484,171.968 75.1694,172.255 75.3794,172.547 C76.0584,173.482 76.6484,174.464 77.1554,175.484 C77.8764,176.935 78.4214,178.463 78.8014,180.044 C79.0054,180.887 79.1594,181.745 79.2654,182.614 C79.5594,184.998 79.4974,187.465 79.0934,189.945 C80.2964,188.782 81.3504,187.608 82.2444,186.433 C87.0024,180.171 87.1474,173.927 80.8494,169.326 C80.2674,168.901 79.6304,168.491 78.9394,168.095" id="Fill-67" fill="#DCBB93"></path>
        <path d="M88.2446,187.4353 C87.7816,188.0623 86.2826,189.1263 84.3286,190.3093 C83.9636,190.5313 83.5806,190.7553 83.1876,190.9833 C82.8586,191.1753 82.5206,191.3653 82.1746,191.5583 C83.1646,192.7793 83.9976,194.0873 84.6736,195.4633 C84.6786,195.4723 84.6816,195.4783 84.6856,195.4873 C85.3856,196.9163 85.9226,198.4203 86.2916,199.9753 C86.6196,201.3373 86.8186,202.7373 86.8976,204.1623 C87.0046,206.1343 86.8786,208.1493 86.5266,210.1713 C89.1126,208.5773 91.0126,206.8643 92.2596,205.0393 C93.5576,203.1403 94.1466,201.1183 94.0606,198.9773 C94.0026,197.5153 93.6286,195.9983 92.9466,194.4263 C92.3346,193.0123 91.4746,191.5563 90.3766,190.0603 C89.7446,189.1983 89.0336,188.3233 88.2446,187.4353" id="Fill-69" fill="#DCBB93"></path>
        <path d="M40.4433,164.7034 C42.7143,177.8494 46.7573,194.3954 67.1743,212.9154 C62.9663,211.6134 40.0523,196.4014 40.4433,164.7034" id="Fill-71" fill="#FEFEFE"></path>
        <path d="M170.1875,284.553 C175.8675,284.553 181.4015,285.154 186.7255,286.295 C186.1265,307.584 186.7305,331.773 187.9575,352.204 L187.9625,352.204 C187.9815,352.51 188.0265,352.819 188.1025,353.126 C178.8525,355.261 169.3395,356.714 159.6215,357.421 C158.9995,339.229 157.4075,320.516 154.2725,303.193 C153.2655,297.626 152.0985,292.199 150.7515,286.974 C156.9575,285.395 163.4695,284.553 170.1875,284.553" id="Fill-73" fill="#FEFEFE"></path>
        <path d="M213.6191,240.9451 C237.1501,245.7451 261.4651,307.0341 230.8691,337.5231 C230.7901,313.5061 226.4221,281.9381 218.7181,265.9351 C225.4461,292.3201 224.2361,317.6311 224.3751,340.6741 C214.3871,345.3021 203.9211,349.0791 193.0711,351.9031 C190.8231,314.4891 190.6681,264.6051 196.2041,243.5341 C202.5351,243.4071 208.4641,242.4811 213.6191,240.9451" id="Fill-75" fill="#FEFEFE"></path>
        <path d="M228.539,217.7346 C229.759,217.2366 231.15,217.8216 231.647,219.0406 C232.145,220.2596 231.56,221.6506 230.342,222.1486 C229.123,222.6466 227.731,222.0616 227.234,220.8426 C226.736,219.6236 227.32,218.2326 228.539,217.7346" id="Fill-77" fill="#050101"></path>
        <path d="M220.9033,214.2898 C222.1223,213.7918 223.5133,214.3768 224.0113,215.5958 C224.5083,216.8148 223.9243,218.2068 222.7063,218.7038 C221.4863,219.2018 220.0943,218.6178 219.5973,217.3978 C219.0993,216.1798 219.6843,214.7878 220.9033,214.2898" id="Fill-79" fill="#050101"></path>
        <path d="M223.5439,224.0105 C224.7629,223.5125 226.1529,224.0975 226.6519,225.3165 C227.1489,226.5345 226.5649,227.9275 225.3459,228.4245 C224.1269,228.9225 222.7349,228.3375 222.2369,227.1185 C221.7399,225.8995 222.3249,224.5085 223.5439,224.0105" id="Fill-81" fill="#050101"></path>
        <path d="M214.8652,219.8689 C216.0842,219.3709 217.4752,219.9559 217.9722,221.1739 C218.4702,222.3929 217.8862,223.7859 216.6672,224.2829 C215.4482,224.7809 214.0562,224.1959 213.5592,222.9769 C213.0612,221.7579 213.6452,220.3669 214.8652,219.8689" id="Fill-83" fill="#050101"></path>
        <path d="M213.6123,209.3919 C214.8323,208.8939 216.2233,209.4789 216.7203,210.6979 C217.2183,211.9169 216.6333,213.3079 215.4153,213.8059 C214.1963,214.3039 212.8043,213.7189 212.3063,212.4999 C211.8083,211.2809 212.3933,209.8899 213.6123,209.3919" id="Fill-85" fill="#050101"></path>
        <path d="M222.8076,288.7029 C216.9336,312.4069 206.1336,331.7219 192.5866,342.9599 C192.7346,346.0049 192.8976,348.9919 193.0716,351.9039 C203.9206,349.0789 214.3866,345.3029 224.3746,340.6739 C224.2766,324.3469 224.8546,306.8829 222.8076,288.7029 M227.6536,250.2059 C244.7866,269.4859 255.2186,313.2579 230.8696,337.5229 C230.8116,320.0919 228.4946,298.6859 224.2836,282.1369 C226.3206,272.0899 227.4946,261.3619 227.6536,250.2059" id="Fill-87" fill="#E7E7E9"></path>
        <path d="M106.4682,335.1926 C105.1522,333.7216 103.8702,332.1706 102.6252,330.5396 C94.6392,320.0746 88.1872,306.3986 83.9362,290.6516 C83.4832,288.9666 83.0532,287.2586 82.6502,285.5286 L76.2262,289.0216 C84.3502,307.5836 84.5302,329.0286 82.4932,346.8896 C86.7912,348.4376 91.1602,349.8346 95.5982,351.0706 C97.2392,351.5276 98.8882,351.9646 100.5492,352.3726 C115.0602,355.9946 130.2432,357.9186 145.8762,357.9186 C148.7712,357.9186 151.6492,357.8436 154.5112,357.7126 C154.4262,355.1916 154.3232,352.6586 154.1972,350.1226 C152.5382,350.7396 150.8532,351.2466 149.1482,351.6356 C146.4022,352.2616 143.5992,352.5856 140.7532,352.5856 C128.0922,352.5856 116.3102,346.1876 106.4682,335.1926" id="Fill-89" fill="#E7E7E9"></path>
        <path d="M115.5854,227.3015 C110.6674,221.3535 107.5484,219.2215 99.2744,213.6795 C95.2524,214.5485 91.9644,215.4145 88.9864,216.4685 C84.9274,217.9085 81.4434,219.6975 77.4544,222.3175 C76.9974,222.6175 76.5334,222.9285 76.0624,223.2515 C76.1744,224.8775 76.0874,226.5715 75.8344,228.2925 C74.8904,234.6775 71.6274,241.4515 67.4924,246.6675 C87.9644,237.4955 102.5604,229.3475 115.5854,227.3015" id="Fill-91" fill="#E7E7E9"></path>
        <path d="M31.0849,171.7039 C32.6249,180.0419 35.6229,187.4419 40.1099,193.7539 L39.5199,194.6889 C24.2729,218.7989 10.8649,256.5539 21.8709,271.5319 C31.1569,284.1719 56.8859,278.9269 83.6789,283.2109 L86.1759,283.6109 C50.5139,287.8689 1.0219,305.5199 5.4179,249.6309 C7.3259,225.3889 29.5949,204.0769 31.0849,171.7039" id="Fill-93" fill="#E7E7E9"></path>
        <path d="M130.4023,257.6336 C122.5513,241.4766 112.6113,227.8536 100.2213,218.9636 C97.7613,222.5986 95.7713,226.1696 93.7593,229.7746 C91.8813,233.1416 89.9853,236.5406 87.6843,240.0846 L110.3073,243.6166 C110.7723,243.6606 111.2343,243.7906 111.6743,244.0126 C113.5683,244.9666 114.3293,247.2796 113.3743,249.1726 L105.7803,264.1856 C117.0903,267.8986 126.9383,276.3716 135.4033,287.0386 C139.2093,291.8336 142.7433,297.0836 146.0073,302.5396 C142.1503,286.6506 137.0243,271.2596 130.4023,257.6336 Z M101.3353,210.4306 C116.4363,220.0246 128.2493,235.6206 137.3223,254.2936 C147.9383,276.1426 153.6373,302.0656 157.6633,327.6746 C157.9863,329.7676 157.7403,331.9606 155.6473,332.2846 C153.8993,332.5546 153.5183,332.3596 152.8323,330.8186 C152.8313,330.8186 131.7203,294.7626 129.3863,291.8216 C120.7783,280.9756 110.7863,272.7126 99.4713,270.4636 C97.3873,270.0566 96.0263,268.0346 96.4333,265.9506 C96.5173,265.5186 96.6713,265.1166 96.8813,264.7556 L104.1333,250.4176 L80.4313,246.7166 C78.3393,246.3926 76.9043,244.4326 77.2273,242.3396 C77.3273,241.6976 77.5813,241.1186 77.9443,240.6316 L77.9343,240.6246 C81.7993,235.4556 84.4443,230.7166 87.0503,226.0446 C89.7253,221.2476 92.3673,216.5116 96.2063,211.3786 C97.4163,209.7656 99.6543,209.3776 101.3293,210.4416 L101.3353,210.4306 Z" id="Fill-95" fill="#050101"></path>
        <path d="M99.2749,213.68 C130.9299,233.791 147.7539,282.015 155.0619,328.494 C143.0759,301.826 124.8869,271.594 100.2089,266.688 L109.9439,247.442 L81.0179,242.926 C88.8649,232.434 91.8359,223.626 99.2749,213.68" id="Fill-97" fill="#FEFEFE"></path>
        <path d="M199.3008,247.2522 C197.7608,255.0692 196.1338,270.1352 195.0988,284.8202 L195.0318,285.7862 C198.0198,279.2892 201.9588,273.6262 207.1098,269.4442 L199.7428,262.3562 C198.2158,260.8852 198.1678,258.4542 199.6388,256.9262 C199.9728,256.5792 200.3568,256.3092 200.7678,256.1142 L215.1918,248.3982 L214.7918,247.5072 C214.4098,246.6512 214.0278,245.7922 213.6228,244.9442 C211.1518,245.6292 208.5278,246.1852 205.7868,246.5922 C203.7168,246.8982 201.5488,247.1222 199.3008,247.2522 Z M192.4888,242.5842 L192.5218,242.4642 L192.5958,242.2382 C193.1188,240.7852 194.4958,239.7292 196.1318,239.6982 C199.0308,239.6412 201.8968,239.3932 204.6738,238.9802 C207.4498,238.5672 210.0848,237.9852 212.5218,237.2592 L212.5248,237.2702 C213.1048,237.0962 213.7358,237.0572 214.3708,237.1842 C215.0288,237.3162 215.5878,237.4572 216.0718,237.6022 C216.6338,237.7712 217.1768,237.9572 217.6968,238.1572 L217.6958,238.1622 C218.5498,238.4862 219.2908,239.1162 219.7428,239.9922 C220.4598,241.3732 221.1338,242.8792 221.8018,244.3782 C222.3938,245.7042 222.9838,247.0252 223.6418,248.2942 L223.6368,248.2972 C224.5958,250.1582 223.8868,252.4522 222.0328,253.4392 L208.8718,260.4802 L215.7988,267.1442 L215.7978,267.1462 C216.0448,267.3842 216.2638,267.6592 216.4458,267.9702 C217.5168,269.7982 216.9048,272.1492 215.0758,273.2212 C209.1558,276.7092 204.8158,282.6452 201.6618,289.7952 C197.5938,299.0182 195.5208,310.2232 194.5948,320.9702 L194.5938,320.9702 C194.4468,322.6672 192.3288,328.5372 191.0248,332.0142 C188.9318,332.3792 187.3338,323.3942 186.9688,321.3012 C185.9058,315.2252 186.3218,299.9562 187.4278,284.2782 C188.6278,267.2642 190.6558,249.5532 192.4858,242.5832 L192.4888,242.5842 Z" id="Fill-99" fill="#050101"></path>
        <path d="M196.207,243.534 L196.2,243.546 C192.812,256.448 188.649,308.581 190.759,320.639 C192.493,300.531 198.173,278.731 213.136,269.911 L202.406,259.589 L220.228,250.055 C218.862,247.423 217.715,244.422 216.328,241.752 C215.426,241.407 214.521,241.129 213.619,240.945 C208.465,242.481 202.537,243.408 196.207,243.534" id="Fill-101" fill="#FEFEFE"></path>
        <path d="M159.0351,235.9666 C144.3341,227.6466 135.1731,214.3236 127.3181,197.8896 C143.8101,218.6276 166.7961,248.3036 211.7871,234.0836 C190.0321,240.6326 146.7141,219.1166 134.4271,190.0616 L98.6901,198.4586 C98.7471,199.3856 98.7181,200.3056 98.6001,201.2186 L108.5121,207.7456 C108.6631,207.9526 108.8061,208.1746 108.9421,208.4086 C109.6791,208.5716 110.4261,208.7266 111.1801,208.8696 C121.9731,218.5996 139.0841,228.4416 159.0351,235.9666" id="Fill-103" fill="#DCBB93"></path>
    </g>
</svg>