<svg width="12px" height="7px" viewBox="0 0 12 7" version="1.1" xmlns="http://www.w3.org/2000/svg" xmlns:xlink="http://www.w3.org/1999/xlink">
    <g id="Page-1" stroke="none" stroke-width="1" fill="none" fill-rule="evenodd">
        <g id="chevron-up" transform="translate(6.000000, 4.000000) rotate(180.000000) translate(-6.000000, -4.000000) " fill="#CCC8C7" fill-rule="nonzero">
            <path d="M5.998,7.244 C5.73411549,7.24424897 5.48105187,7.13913577 5.295,6.952 L1.048,2.705 C0.661141969,2.31350549 0.662034474,1.68339702 1.05,1.293 C1.23652504,1.1047606 1.49037588,0.998614583 1.75537653,0.99805155 C2.02037718,0.997488518 2.27467676,1.1025549 2.462,1.29 L6,4.83 L9.538,1.29 C9.9297686,0.903418158 10.5598776,0.904756917 10.95,1.293 C11.1378604,1.47978979 11.2436557,1.73366644 11.244031,1.99858494 C11.2444062,2.26350344 11.1393305,2.51767877 10.952,2.705 L6.705,6.952 C6.51873908,7.13796923 6.26620639,7.24229185 6.003,7.242 L5.998,7.244 Z" id="Shape"></path>
        </g>
    </g>
</svg>