<svg width="50" height="38" viewBox="0 0 50 38" xmlns="http://www.w3.org/2000/svg" class="icon_e4eef clickable_1ca0f"><g fill="none" fill-rule="evenodd"><path d="M33.25 4.75H1.583C.71 4.75 0 5.459 0 6.333v25.334c0 .874.709 1.583 1.583 1.583H33.25c.874 0 1.583-.709 1.583-1.583V6.333c0-.874-.709-1.583-1.583-1.583z" fill="#D4D4D4"></path><g transform="rotate(7 -35.51 56.656)"><path d="M33.25 0H1.583C.71 0 0 .709 0 1.583v25.334C0 27.79.709 28.5 1.583 28.5H33.25c.874 0 1.583-.709 1.583-1.583V1.583C34.833.71 34.124 0 33.25 0z" fill="#E6E6E6"></path><path d="M31.667 26.125h-28.5a.792.792 0 0 1-.792-.792V3.167c0-.438.354-.792.792-.792h28.5c.437 0 .791.354.791.792v22.166a.792.792 0 0 1-.791.792z" fill="#FFF"></path><circle fill="#E6E6E6" cx="15.042" cy="8.708" r="2.375"></circle><path d="M19.334 22.167l-6.9-6.893a.792.792 0 0 0-1.16.044l-4.75 5.54a.792.792 0 0 0 .601 1.309h12.21z" fill="#C9C6C6"></path><path d="M28.349 20.91l-6.334-8.71a.792.792 0 0 0-1.266-.02l-7.772 9.986h14.731a.792.792 0 0 0 .64-1.258z" fill="#E6E6E6"></path></g><path d="M41.958 0a7.917 7.917 0 1 0 7.917 7.917A7.94 7.94 0 0 0 41.958 0zm3.959 8.576h-3.299v3.299h-1.32V8.576H38v-1.32h3.299V3.959h1.32v3.299h3.298v1.32z" fill="#2A7BFF" fill-rule="nonzero"></path></g></svg>
