<svg width="16" height="16" viewBox="0 0 16 16" fill="none" xmlns="http://www.w3.org/2000/svg">
<path d="M15.674 0.325526C15.2403 -0.108509 14.536 -0.108509 14.1022 0.325526L7.99975 6.4277L1.89757 0.325526C1.46379 -0.108509 0.759499 -0.108509 0.325711 0.325526C-0.10857 0.759561 -0.10857 1.4636 0.325711 1.89764L6.42789 7.99981L0.325711 14.102C-0.10857 14.536 -0.10857 15.2398 0.325711 15.6739C0.542605 15.891 0.827186 15.9994 1.11177 15.9994C1.39635 15.9994 1.68093 15.891 1.89782 15.6739L8 9.57168L14.1022 15.6739C14.3191 15.891 14.6037 15.9994 14.8882 15.9994C15.1728 15.9994 15.4574 15.891 15.6743 15.6739C16.1086 15.2398 16.1086 14.536 15.6743 14.102L9.57186 7.99957L15.674 1.89739C16.1083 1.4636 16.1083 0.759561 15.674 0.325526Z" fill="black"/>
</svg>
