<svg width="190" height="844" viewBox="0 0 190 844" fill="none" xmlns="http://www.w3.org/2000/svg">
<path d="M189.674 2.32553C189.24 1.89149 188.536 1.89149 188.102 2.32553L182 8.4277L175.898 2.32553C175.464 1.89149 174.759 1.89149 174.326 2.32553C173.891 2.75956 173.891 3.4636 174.326 3.89764L180.428 9.99981L174.326 16.102C173.891 16.536 173.891 17.2398 174.326 17.6739C174.543 17.891 174.827 17.9994 175.112 17.9994C175.396 17.9994 175.681 17.891 175.898 17.6739L182 11.5717L188.102 17.6739C188.319 17.891 188.604 17.9994 188.888 17.9994C189.173 17.9994 189.457 17.891 189.674 17.6739C190.109 17.2398 190.109 16.536 189.674 16.102L183.572 9.99957L189.674 3.89739C190.108 3.4636 190.108 2.75956 189.674 2.32553Z" fill="black"/>
<rect width="120" height="18" rx="5" fill="#E5E5E5"/>
<rect x="47" y="67" width="100" height="18" rx="5" fill="#E5E5E5"/>
<rect x="47" y="375" width="120" height="18" rx="5" fill="#E5E5E5"/>
<rect x="47" y="755" width="100" height="18" rx="5" fill="#E5E5E5"/>
<rect x="47" y="303" width="80" height="18" rx="5" fill="#E5E5E5"/>
<rect x="47" y="611" width="80" height="18" rx="5" fill="#E5E5E5"/>
<rect x="47" y="683" width="120" height="18" rx="5" fill="#E5E5E5"/>
<rect x="0.5" y="110.5" width="189" height="148" rx="4.5" stroke="black"/>
<rect x="0.5" y="418.5" width="189" height="148" rx="4.5" stroke="black"/>
<path d="M0.5 803C0.5 800.515 2.51472 798.5 5 798.5H185C187.485 798.5 189.5 800.515 189.5 803V843.5H0.5V803Z" stroke="black"/>
<circle cx="18.5" cy="76.5" r="18.5" fill="#E5E5E5"/>
<circle cx="18.5" cy="384.5" r="18.5" fill="#E5E5E5"/>
<circle cx="18.5" cy="764.5" r="18.5" fill="#E5E5E5"/>
<circle cx="18.5" cy="312.5" r="18.5" fill="#E5E5E5"/>
<circle cx="18.5" cy="620.5" r="18.5" fill="#E5E5E5"/>
<circle cx="18.5" cy="692.5" r="18.5" fill="#E5E5E5"/>
</svg>
