<svg width="25" height="25" viewBox="0 0 25 25" fill="none" xmlns="http://www.w3.org/2000/svg">
<path d="M12.4691 0C19.3827 0 25 5.61728 25 12.4691C25 19.3827 19.3827 25 12.4691 25C5.61728 25 0 19.3827 0 12.4691C0 5.61728 5.61728 0 12.4691 0ZM12.4691 6.66667C14.9383 6.66667 16.9753 8.7037 16.9753 11.1728C16.9753 12.7778 16.1111 14.1975 14.7531 15C17.4074 15.8025 19.5062 18.0247 20.0617 20.8025C22.284 18.7654 23.7037 15.8025 23.7037 12.4691C23.7037 6.2963 18.7037 1.23457 12.4691 1.23457C6.2963 1.23457 1.23457 6.2963 1.23457 12.4691C1.23457 15.8025 2.65432 18.7654 4.93827 20.8025C5.49383 18.0247 7.53086 15.8025 10.1852 15C8.88889 14.1975 8.02469 12.7778 8.02469 11.1728C8.02469 8.7037 10 6.66667 12.4691 6.66667ZM18.9506 21.7284C18.5802 18.4568 15.8642 15.9259 12.4691 15.9259C9.1358 15.9259 6.41975 18.4568 6.04938 21.7284C7.90123 22.963 10.1235 23.7037 12.4691 23.7037C14.8765 23.7037 17.0988 22.963 18.9506 21.7284ZM12.4691 7.96296C10.679 7.96296 9.25926 9.38272 9.25926 11.1728C9.25926 12.963 10.7407 14.3827 12.4691 14.3827C14.2593 14.3827 15.7407 12.963 15.7407 11.1728C15.7407 9.38272 14.2593 7.96296 12.4691 7.96296Z" fill="black"/>
</svg>
