<svg width="21" height="21" viewBox="0 0 21 21" fill="none" xmlns="http://www.w3.org/2000/svg">
<path d="M19.407 15.1329C18.0714 17.4462 15.9152 19.101 13.335 19.7923C10.7549 20.4837 8.0601 20.1288 5.74677 18.7932C4.10894 17.8476 2.77912 16.4669 1.90192 14.8006C1.04882 13.1806 0.655102 11.3594 0.7632 9.53455L2.63501 9.64529C2.54703 11.1289 2.8671 12.6097 3.56094 13.9271C4.27329 15.2797 5.35326 16.4011 6.68417 17.1695C10.564 19.4095 15.5432 18.0756 17.7834 14.1955C20.0236 10.3154 18.6895 5.33647 14.8094 3.09627C13.4785 2.32787 11.9675 1.95296 10.4397 2.01269C8.9519 2.07051 7.50943 2.53374 6.26861 3.35171L5.2368 1.78605C6.7633 0.779673 8.53722 0.210359 10.3667 0.139171C12.2483 0.0657352 14.1089 0.527049 15.7468 1.47265C18.0601 2.80825 19.7149 4.96452 20.4062 7.54467C21.0976 10.1248 20.7426 12.8196 19.407 15.1329Z" fill="black"/>
</svg>
