<svg width="33" height="35" viewBox="0 0 33 35" fill="none" xmlns="http://www.w3.org/2000/svg">
<mask id="path-1-inside-1" fill="white">
<path d="M32.9918 10.9015C32.9979 10.8607 32.9979 10.8193 32.9918 10.7785L30.9616 2.79305C30.7614 1.99506 30.3004 1.28682 29.6517 0.78079C29.003 0.274762 28.2038 -4.71154e-05 27.3811 6.05893e-09H6.6116C5.78888 -4.71154e-05 4.98972 0.274762 4.34102 0.78079C3.69232 1.28682 3.23127 1.99506 3.03108 2.79305L1.00089 10.7785C0.994822 10.8193 0.994822 10.8607 1.00089 10.9015C0.99513 10.9588 0.99513 11.0165 1.00089 11.0738C1.00089 12.4049 1.43263 13.7001 2.23131 14.765V30.7605C2.23131 31.7395 2.6202 32.6784 3.31245 33.3706C4.0047 34.0628 4.94358 34.4517 5.92256 34.4517H28.0701C29.0491 34.4517 29.988 34.0628 30.6802 33.3706C31.3725 32.6784 31.7614 31.7395 31.7614 30.7605V14.765C32.56 13.7001 32.9918 12.4049 32.9918 11.0738C32.9975 11.0165 32.9975 10.9588 32.9918 10.9015V10.9015ZM5.41809 3.39596C5.48546 3.12296 5.6443 2.88127 5.86817 2.71112C6.09205 2.54098 6.36744 2.45265 6.64851 2.46084H27.3811C27.6621 2.45265 27.9375 2.54098 28.1614 2.71112C28.3853 2.88127 28.5441 3.12296 28.6115 3.39596L30.1864 9.84336H3.80624L5.41809 3.39596ZM20.4661 12.3042C20.2075 13.0168 19.7357 13.6325 19.1149 14.0676C18.4941 14.5027 17.7544 14.7361 16.9963 14.7361C16.2383 14.7361 15.4986 14.5027 14.8778 14.0676C14.257 13.6325 13.7852 13.0168 13.5266 12.3042H20.4661ZM4.38454 13.5346C4.07876 13.1699 3.84118 12.7531 3.6832 12.3042H10.6228C10.4097 12.9099 10.0423 13.4495 9.55693 13.8698C9.07154 14.2901 8.48492 14.5765 7.85499 14.7007C7.22507 14.8249 6.57363 14.7827 5.96501 14.5782C5.35639 14.3737 4.81163 14.014 4.38454 13.5346V13.5346ZM19.4572 31.9909H14.5355V23.378C14.5355 23.0516 14.6651 22.7387 14.8959 22.5079C15.1266 22.2772 15.4396 22.1475 15.7659 22.1475H18.2268C18.5531 22.1475 18.866 22.2772 19.0968 22.5079C19.3275 22.7387 19.4572 23.0516 19.4572 23.378V31.9909ZM29.3005 30.7605C29.3005 31.0868 29.1709 31.3998 28.9402 31.6305C28.7094 31.8613 28.3964 31.9909 28.0701 31.9909H21.918V23.378C21.918 22.399 21.5291 21.4601 20.8369 20.7679C20.1446 20.0756 19.2057 19.6867 18.2268 19.6867H15.7659C14.7869 19.6867 13.848 20.0756 13.1558 20.7679C12.4636 21.4601 12.0747 22.399 12.0747 23.378V31.9909H5.92256C5.59624 31.9909 5.28327 31.8613 5.05253 31.6305C4.82178 31.3998 4.69214 31.0868 4.69214 30.7605V16.7091C5.05718 16.8671 5.43615 16.9906 5.82413 17.0782H5.92256C6.32739 17.1646 6.73922 17.214 7.15298 17.2259C7.52864 17.2201 7.90316 17.1831 8.27266 17.1151H8.46953C8.80924 17.0387 9.14246 16.9358 9.46617 16.8075L9.65073 16.7214C9.97236 16.5803 10.2811 16.4115 10.5735 16.2169V16.2169C10.8562 16.02 11.1235 15.802 11.3733 15.5648L11.4841 15.4541C11.6974 15.239 11.8947 15.0087 12.0747 14.765C12.2415 14.9817 12.4223 15.1872 12.616 15.3802L12.7268 15.491C12.9766 15.7282 13.2439 15.9462 13.5266 16.1431V16.1431C13.819 16.3377 14.1277 16.5064 14.4494 16.6476L14.6339 16.7337C14.9576 16.862 15.2909 16.9649 15.6306 17.0413H15.8274C16.2109 17.1368 16.6021 17.1986 16.9963 17.2259C17.372 17.2201 17.7465 17.1831 18.116 17.1151H18.3129C18.6526 17.0387 18.9858 16.9358 19.3095 16.8075L19.4941 16.7214C19.8157 16.5803 20.1245 16.4115 20.4169 16.2169V16.2169C20.6995 16.02 20.9669 15.802 21.2167 15.5648L21.3274 15.4541C21.5407 15.239 21.7381 15.0087 21.918 14.765C22.0848 14.9817 22.2657 15.1872 22.4594 15.3802L22.5701 15.491C22.8199 15.7282 23.0873 15.9462 23.3699 16.1431V16.1431C23.6623 16.3377 23.9711 16.5064 24.2927 16.6476L24.4773 16.7337C24.801 16.862 25.1342 16.9649 25.4739 17.0413H25.6708C26.0543 17.1368 26.4454 17.1986 26.8397 17.2259C27.2527 17.2221 27.6645 17.1809 28.0701 17.1028V17.1028C28.4907 17.0179 28.9026 16.8943 29.3005 16.7337H29.3621L29.3005 30.7605ZM29.6081 13.5346C29.26 13.9239 28.8332 14.2348 28.356 14.4469C27.8787 14.659 27.3619 14.7675 26.8397 14.765C26.6121 14.7654 26.3851 14.7407 26.163 14.6912H25.9661C25.8108 14.6592 25.6585 14.6139 25.5108 14.5559L25.314 14.4697C25.1684 14.4082 25.0284 14.3341 24.8956 14.2483L24.7357 14.1498C24.5633 14.0249 24.3989 13.8893 24.2435 13.7438L24.1697 13.6577C24.0452 13.5308 23.9301 13.3951 23.8252 13.2516L23.7144 13.0671C23.6374 12.9398 23.5676 12.8084 23.5053 12.6733L23.4068 12.4765C23.4122 12.4356 23.4122 12.3942 23.4068 12.3534H30.3587C30.1825 12.7896 29.9281 13.1899 29.6081 13.5346V13.5346Z"/>
</mask>
<path d="M32.9918 10.9015C32.9979 10.8607 32.9979 10.8193 32.9918 10.7785L30.9616 2.79305C30.7614 1.99506 30.3004 1.28682 29.6517 0.78079C29.003 0.274762 28.2038 -4.71154e-05 27.3811 6.05893e-09H6.6116C5.78888 -4.71154e-05 4.98972 0.274762 4.34102 0.78079C3.69232 1.28682 3.23127 1.99506 3.03108 2.79305L1.00089 10.7785C0.994822 10.8193 0.994822 10.8607 1.00089 10.9015C0.99513 10.9588 0.99513 11.0165 1.00089 11.0738C1.00089 12.4049 1.43263 13.7001 2.23131 14.765V30.7605C2.23131 31.7395 2.6202 32.6784 3.31245 33.3706C4.0047 34.0628 4.94358 34.4517 5.92256 34.4517H28.0701C29.0491 34.4517 29.988 34.0628 30.6802 33.3706C31.3725 32.6784 31.7614 31.7395 31.7614 30.7605V14.765C32.56 13.7001 32.9918 12.4049 32.9918 11.0738C32.9975 11.0165 32.9975 10.9588 32.9918 10.9015V10.9015ZM5.41809 3.39596C5.48546 3.12296 5.6443 2.88127 5.86817 2.71112C6.09205 2.54098 6.36744 2.45265 6.64851 2.46084H27.3811C27.6621 2.45265 27.9375 2.54098 28.1614 2.71112C28.3853 2.88127 28.5441 3.12296 28.6115 3.39596L30.1864 9.84336H3.80624L5.41809 3.39596ZM20.4661 12.3042C20.2075 13.0168 19.7357 13.6325 19.1149 14.0676C18.4941 14.5027 17.7544 14.7361 16.9963 14.7361C16.2383 14.7361 15.4986 14.5027 14.8778 14.0676C14.257 13.6325 13.7852 13.0168 13.5266 12.3042H20.4661ZM4.38454 13.5346C4.07876 13.1699 3.84118 12.7531 3.6832 12.3042H10.6228C10.4097 12.9099 10.0423 13.4495 9.55693 13.8698C9.07154 14.2901 8.48492 14.5765 7.85499 14.7007C7.22507 14.8249 6.57363 14.7827 5.96501 14.5782C5.35639 14.3737 4.81163 14.014 4.38454 13.5346V13.5346ZM19.4572 31.9909H14.5355V23.378C14.5355 23.0516 14.6651 22.7387 14.8959 22.5079C15.1266 22.2772 15.4396 22.1475 15.7659 22.1475H18.2268C18.5531 22.1475 18.866 22.2772 19.0968 22.5079C19.3275 22.7387 19.4572 23.0516 19.4572 23.378V31.9909ZM29.3005 30.7605C29.3005 31.0868 29.1709 31.3998 28.9402 31.6305C28.7094 31.8613 28.3964 31.9909 28.0701 31.9909H21.918V23.378C21.918 22.399 21.5291 21.4601 20.8369 20.7679C20.1446 20.0756 19.2057 19.6867 18.2268 19.6867H15.7659C14.7869 19.6867 13.848 20.0756 13.1558 20.7679C12.4636 21.4601 12.0747 22.399 12.0747 23.378V31.9909H5.92256C5.59624 31.9909 5.28327 31.8613 5.05253 31.6305C4.82178 31.3998 4.69214 31.0868 4.69214 30.7605V16.7091C5.05718 16.8671 5.43615 16.9906 5.82413 17.0782H5.92256C6.32739 17.1646 6.73922 17.214 7.15298 17.2259C7.52864 17.2201 7.90316 17.1831 8.27266 17.1151H8.46953C8.80924 17.0387 9.14246 16.9358 9.46617 16.8075L9.65073 16.7214C9.97236 16.5803 10.2811 16.4115 10.5735 16.2169V16.2169C10.8562 16.02 11.1235 15.802 11.3733 15.5648L11.4841 15.4541C11.6974 15.239 11.8947 15.0087 12.0747 14.765C12.2415 14.9817 12.4223 15.1872 12.616 15.3802L12.7268 15.491C12.9766 15.7282 13.2439 15.9462 13.5266 16.1431V16.1431C13.819 16.3377 14.1277 16.5064 14.4494 16.6476L14.6339 16.7337C14.9576 16.862 15.2909 16.9649 15.6306 17.0413H15.8274C16.2109 17.1368 16.6021 17.1986 16.9963 17.2259C17.372 17.2201 17.7465 17.1831 18.116 17.1151H18.3129C18.6526 17.0387 18.9858 16.9358 19.3095 16.8075L19.4941 16.7214C19.8157 16.5803 20.1245 16.4115 20.4169 16.2169V16.2169C20.6995 16.02 20.9669 15.802 21.2167 15.5648L21.3274 15.4541C21.5407 15.239 21.7381 15.0087 21.918 14.765C22.0848 14.9817 22.2657 15.1872 22.4594 15.3802L22.5701 15.491C22.8199 15.7282 23.0873 15.9462 23.3699 16.1431V16.1431C23.6623 16.3377 23.9711 16.5064 24.2927 16.6476L24.4773 16.7337C24.801 16.862 25.1342 16.9649 25.4739 17.0413H25.6708C26.0543 17.1368 26.4454 17.1986 26.8397 17.2259C27.2527 17.2221 27.6645 17.1809 28.0701 17.1028V17.1028C28.4907 17.0179 28.9026 16.8943 29.3005 16.7337H29.3621L29.3005 30.7605ZM29.6081 13.5346C29.26 13.9239 28.8332 14.2348 28.356 14.4469C27.8787 14.659 27.3619 14.7675 26.8397 14.765C26.6121 14.7654 26.3851 14.7407 26.163 14.6912H25.9661C25.8108 14.6592 25.6585 14.6139 25.5108 14.5559L25.314 14.4697C25.1684 14.4082 25.0284 14.3341 24.8956 14.2483L24.7357 14.1498C24.5633 14.0249 24.3989 13.8893 24.2435 13.7438L24.1697 13.6577C24.0452 13.5308 23.9301 13.3951 23.8252 13.2516L23.7144 13.0671C23.6374 12.9398 23.5676 12.8084 23.5053 12.6733L23.4068 12.4765C23.4122 12.4356 23.4122 12.3942 23.4068 12.3534H30.3587C30.1825 12.7896 29.9281 13.1899 29.6081 13.5346V13.5346Z" fill="black" stroke="white" stroke-width="1.2" mask="url(#path-1-inside-1)"/>
</svg>
