<svg width="44" height="320" viewBox="0 0 44 320" fill="none" xmlns="http://www.w3.org/2000/svg">
<rect y="42" width="44" height="10" rx="5" fill="#E5E5E5"/>
<rect y="130" width="44" height="10" rx="5" fill="#E5E5E5"/>
<rect y="223" width="44" height="10" rx="5" fill="#E5E5E5"/>
<rect y="310" width="44" height="10" rx="5" fill="#E5E5E5"/>
<path d="M36.3264 278.319L36.3264 278.319L29.3025 277.345C29.3025 277.345 29.3025 277.345 29.3025 277.345C28.3091 277.207 27.4387 276.605 26.9841 275.722L26.9841 275.721L23.8359 269.598L23.8359 269.598C23.1855 268.332 21.286 268.335 20.6385 269.601L36.3264 278.319ZM36.3264 278.319C37.8135 278.526 38.3359 280.233 37.321 281.188L32.245 285.963L32.6904 286.436L32.245 285.963C31.5168 286.648 31.1794 287.642 31.3548 288.621L31.3548 288.621L32.5628 295.354C32.5628 295.354 32.5628 295.354 32.5628 295.354C32.8007 296.681 31.3299 297.811 29.9756 297.127L23.6906 293.955L23.6905 293.955C22.7982 293.505 21.7351 293.506 20.8437 293.959L14.5664 297.145C13.2143 297.832 11.74 296.705 11.9747 295.378C11.9747 295.378 11.9747 295.378 11.9747 295.378L13.1659 288.642L13.1659 288.642C13.3389 287.662 12.9992 286.669 12.2692 285.986C12.2691 285.986 12.2691 285.986 12.269 285.986L7.1822 281.222L7.18218 281.222C6.16444 280.27 6.68289 278.561 8.16952 278.352L8.16954 278.352L15.1908 277.361C16.1837 277.221 17.0529 276.618 17.5053 275.732C17.5053 275.732 17.5053 275.732 17.5053 275.732L20.6385 269.601L36.3264 278.319Z" stroke="black" stroke-width="1.3"/>
<mask id="path-6-inside-1" fill="white">
<path d="M37.9918 185.902C37.9979 185.861 37.9979 185.819 37.9918 185.778L35.9616 177.793C35.7614 176.995 35.3004 176.287 34.6517 175.781C34.003 175.275 33.2038 175 32.3811 175H11.6116C10.7889 175 9.98972 175.275 9.34102 175.781C8.69232 176.287 8.23127 176.995 8.03108 177.793L6.00089 185.778C5.99482 185.819 5.99482 185.861 6.00089 185.902C5.99513 185.959 5.99513 186.016 6.00089 186.074C6.00089 187.405 6.43263 188.7 7.23131 189.765V205.76C7.23131 206.739 7.62021 207.678 8.31245 208.371C9.0047 209.063 9.94358 209.452 10.9226 209.452H33.0701C34.0491 209.452 34.988 209.063 35.6802 208.371C36.3725 207.678 36.7614 206.739 36.7614 205.76V189.765C37.56 188.7 37.9918 187.405 37.9918 186.074C37.9975 186.016 37.9975 185.959 37.9918 185.902ZM10.4181 178.396C10.4855 178.123 10.6443 177.881 10.8682 177.711C11.092 177.541 11.3674 177.453 11.6485 177.461H32.3811C32.6621 177.453 32.9375 177.541 33.1614 177.711C33.3853 177.881 33.5441 178.123 33.6115 178.396L35.1864 184.843H8.80624L10.4181 178.396ZM25.4661 187.304C25.2075 188.017 24.7357 188.632 24.1149 189.068C23.4941 189.503 22.7544 189.736 21.9963 189.736C21.2383 189.736 20.4986 189.503 19.8778 189.068C19.257 188.632 18.7852 188.017 18.5266 187.304H25.4661ZM9.38454 188.535C9.07876 188.17 8.84118 187.753 8.6832 187.304H15.6228C15.4097 187.91 15.0423 188.449 14.5569 188.87C14.0715 189.29 13.4849 189.576 12.855 189.701C12.2251 189.825 11.5736 189.783 10.965 189.578C10.3564 189.374 9.81163 189.014 9.38454 188.535ZM24.4572 206.991H19.5355V198.378C19.5355 198.052 19.6651 197.739 19.8959 197.508C20.1266 197.277 20.4396 197.148 20.7659 197.148H23.2268C23.5531 197.148 23.866 197.277 24.0968 197.508C24.3275 197.739 24.4572 198.052 24.4572 198.378V206.991ZM34.3005 205.76C34.3005 206.087 34.1709 206.4 33.9402 206.631C33.7094 206.861 33.3964 206.991 33.0701 206.991H26.918V198.378C26.918 197.399 26.5291 196.46 25.8369 195.768C25.1446 195.076 24.2057 194.687 23.2268 194.687H20.7659C19.7869 194.687 18.8481 195.076 18.1558 195.768C17.4636 196.46 17.0747 197.399 17.0747 198.378V206.991H10.9226C10.5962 206.991 10.2833 206.861 10.0525 206.631C9.82178 206.4 9.69214 206.087 9.69214 205.76V191.709C10.0572 191.867 10.4361 191.991 10.8241 192.078H10.9226C11.3274 192.165 11.7392 192.214 12.153 192.226C12.5286 192.22 12.9032 192.183 13.2727 192.115H13.4695C13.8092 192.039 14.1425 191.936 14.4662 191.808L14.6507 191.721C14.9724 191.58 15.2811 191.411 15.5735 191.217C15.8562 191.02 16.1235 190.802 16.3733 190.565L16.4841 190.454C16.6974 190.239 16.8947 190.009 17.0747 189.765C17.2415 189.982 17.4223 190.187 17.616 190.38L17.7268 190.491C17.9766 190.728 18.2439 190.946 18.5266 191.143C18.819 191.338 19.1277 191.506 19.4494 191.648L19.6339 191.734C19.9576 191.862 20.2909 191.965 20.6306 192.041H20.8274C21.2109 192.137 21.6021 192.199 21.9963 192.226C22.372 192.22 22.7465 192.183 23.116 192.115H23.3129C23.6526 192.039 23.9858 191.936 24.3095 191.808L24.4941 191.721C24.8157 191.58 25.1245 191.411 25.4169 191.217C25.6995 191.02 25.9669 190.802 26.2167 190.565L26.3274 190.454C26.5407 190.239 26.7381 190.009 26.918 189.765C27.0848 189.982 27.2657 190.187 27.4594 190.38L27.5701 190.491C27.8199 190.728 28.0873 190.946 28.3699 191.143C28.6623 191.338 28.9711 191.506 29.2927 191.648L29.4773 191.734C29.801 191.862 30.1342 191.965 30.4739 192.041H30.6708C31.0543 192.137 31.4454 192.199 31.8397 192.226C32.2527 192.222 32.6645 192.181 33.0701 192.103C33.4907 192.018 33.9026 191.894 34.3005 191.734H34.3621L34.3005 205.76ZM34.6081 188.535C34.26 188.924 33.8332 189.235 33.356 189.447C32.8787 189.659 32.3619 189.767 31.8397 189.765C31.6121 189.765 31.3851 189.741 31.163 189.691H30.9661C30.8108 189.659 30.6585 189.614 30.5108 189.556L30.314 189.47C30.1684 189.408 30.0284 189.334 29.8956 189.248L29.7357 189.15C29.5633 189.025 29.3989 188.889 29.2435 188.744L29.1697 188.658C29.0452 188.531 28.9301 188.395 28.8252 188.252L28.7144 188.067C28.6374 187.94 28.5676 187.808 28.5053 187.673L28.4068 187.476C28.4122 187.436 28.4122 187.394 28.4068 187.353H35.3587C35.1825 187.79 34.9281 188.19 34.6081 188.535Z"/>
</mask>
<path d="M37.9918 185.902C37.9979 185.861 37.9979 185.819 37.9918 185.778L35.9616 177.793C35.7614 176.995 35.3004 176.287 34.6517 175.781C34.003 175.275 33.2038 175 32.3811 175H11.6116C10.7889 175 9.98972 175.275 9.34102 175.781C8.69232 176.287 8.23127 176.995 8.03108 177.793L6.00089 185.778C5.99482 185.819 5.99482 185.861 6.00089 185.902C5.99513 185.959 5.99513 186.016 6.00089 186.074C6.00089 187.405 6.43263 188.7 7.23131 189.765V205.76C7.23131 206.739 7.62021 207.678 8.31245 208.371C9.0047 209.063 9.94358 209.452 10.9226 209.452H33.0701C34.0491 209.452 34.988 209.063 35.6802 208.371C36.3725 207.678 36.7614 206.739 36.7614 205.76V189.765C37.56 188.7 37.9918 187.405 37.9918 186.074C37.9975 186.016 37.9975 185.959 37.9918 185.902ZM10.4181 178.396C10.4855 178.123 10.6443 177.881 10.8682 177.711C11.092 177.541 11.3674 177.453 11.6485 177.461H32.3811C32.6621 177.453 32.9375 177.541 33.1614 177.711C33.3853 177.881 33.5441 178.123 33.6115 178.396L35.1864 184.843H8.80624L10.4181 178.396ZM25.4661 187.304C25.2075 188.017 24.7357 188.632 24.1149 189.068C23.4941 189.503 22.7544 189.736 21.9963 189.736C21.2383 189.736 20.4986 189.503 19.8778 189.068C19.257 188.632 18.7852 188.017 18.5266 187.304H25.4661ZM9.38454 188.535C9.07876 188.17 8.84118 187.753 8.6832 187.304H15.6228C15.4097 187.91 15.0423 188.449 14.5569 188.87C14.0715 189.29 13.4849 189.576 12.855 189.701C12.2251 189.825 11.5736 189.783 10.965 189.578C10.3564 189.374 9.81163 189.014 9.38454 188.535ZM24.4572 206.991H19.5355V198.378C19.5355 198.052 19.6651 197.739 19.8959 197.508C20.1266 197.277 20.4396 197.148 20.7659 197.148H23.2268C23.5531 197.148 23.866 197.277 24.0968 197.508C24.3275 197.739 24.4572 198.052 24.4572 198.378V206.991ZM34.3005 205.76C34.3005 206.087 34.1709 206.4 33.9402 206.631C33.7094 206.861 33.3964 206.991 33.0701 206.991H26.918V198.378C26.918 197.399 26.5291 196.46 25.8369 195.768C25.1446 195.076 24.2057 194.687 23.2268 194.687H20.7659C19.7869 194.687 18.8481 195.076 18.1558 195.768C17.4636 196.46 17.0747 197.399 17.0747 198.378V206.991H10.9226C10.5962 206.991 10.2833 206.861 10.0525 206.631C9.82178 206.4 9.69214 206.087 9.69214 205.76V191.709C10.0572 191.867 10.4361 191.991 10.8241 192.078H10.9226C11.3274 192.165 11.7392 192.214 12.153 192.226C12.5286 192.22 12.9032 192.183 13.2727 192.115H13.4695C13.8092 192.039 14.1425 191.936 14.4662 191.808L14.6507 191.721C14.9724 191.58 15.2811 191.411 15.5735 191.217C15.8562 191.02 16.1235 190.802 16.3733 190.565L16.4841 190.454C16.6974 190.239 16.8947 190.009 17.0747 189.765C17.2415 189.982 17.4223 190.187 17.616 190.38L17.7268 190.491C17.9766 190.728 18.2439 190.946 18.5266 191.143C18.819 191.338 19.1277 191.506 19.4494 191.648L19.6339 191.734C19.9576 191.862 20.2909 191.965 20.6306 192.041H20.8274C21.2109 192.137 21.6021 192.199 21.9963 192.226C22.372 192.22 22.7465 192.183 23.116 192.115H23.3129C23.6526 192.039 23.9858 191.936 24.3095 191.808L24.4941 191.721C24.8157 191.58 25.1245 191.411 25.4169 191.217C25.6995 191.02 25.9669 190.802 26.2167 190.565L26.3274 190.454C26.5407 190.239 26.7381 190.009 26.918 189.765C27.0848 189.982 27.2657 190.187 27.4594 190.38L27.5701 190.491C27.8199 190.728 28.0873 190.946 28.3699 191.143C28.6623 191.338 28.9711 191.506 29.2927 191.648L29.4773 191.734C29.801 191.862 30.1342 191.965 30.4739 192.041H30.6708C31.0543 192.137 31.4454 192.199 31.8397 192.226C32.2527 192.222 32.6645 192.181 33.0701 192.103C33.4907 192.018 33.9026 191.894 34.3005 191.734H34.3621L34.3005 205.76ZM34.6081 188.535C34.26 188.924 33.8332 189.235 33.356 189.447C32.8787 189.659 32.3619 189.767 31.8397 189.765C31.6121 189.765 31.3851 189.741 31.163 189.691H30.9661C30.8108 189.659 30.6585 189.614 30.5108 189.556L30.314 189.47C30.1684 189.408 30.0284 189.334 29.8956 189.248L29.7357 189.15C29.5633 189.025 29.3989 188.889 29.2435 188.744L29.1697 188.658C29.0452 188.531 28.9301 188.395 28.8252 188.252L28.7144 188.067C28.6374 187.94 28.5676 187.808 28.5053 187.673L28.4068 187.476C28.4122 187.436 28.4122 187.394 28.4068 187.353H35.3587C35.1825 187.79 34.9281 188.19 34.6081 188.535Z" fill="black" stroke="white" stroke-width="1.2" mask="url(#path-6-inside-1)"/>
<path d="M7.56667 89.4402V89.4403V97.893L7.56667 97.8932C7.56693 98.1247 7.65904 98.3468 7.8228 98.5105C7.98656 98.6743 8.20859 98.7664 8.44017 98.7667H8.44029H16.8931H16.8932C17.1248 98.7664 17.3468 98.6743 17.5105 98.5105C17.6743 98.3468 17.7664 98.1247 17.7667 97.8932V97.893V89.4403V89.4402C17.7664 89.2086 17.6743 88.9866 17.5105 88.8228C17.3468 88.659 17.1248 88.5669 16.8932 88.5667H16.8931H8.44029L8.44017 88.5667C8.20859 88.5669 7.98656 88.659 7.82281 88.8228C7.65905 88.9865 7.56693 89.2086 7.56667 89.4402ZM6.27814 98.7886C6.16053 98.5047 6.1 98.2004 6.1 97.893V89.4403C6.1 89.1329 6.16054 88.8286 6.27815 88.5447C6.39576 88.2607 6.56814 88.0028 6.78546 87.7854C7.00277 87.5681 7.26076 87.3957 7.5447 87.2781C7.82864 87.1605 8.13296 87.1 8.44029 87.1H16.8931C17.5137 87.1 18.109 87.3466 18.5479 87.7855C18.9868 88.2243 19.2333 88.8196 19.2333 89.4403V97.893C19.2333 98.2004 19.1728 98.5047 19.0552 98.7886C18.9376 99.0726 18.7652 99.3306 18.5479 99.5479C18.3306 99.7652 18.0726 99.9376 17.7886 100.055C17.5047 100.173 17.2004 100.233 16.8931 100.233H8.44029C8.13296 100.233 7.82863 100.173 7.5447 100.055C7.26076 99.9376 7.00277 99.7652 6.78545 99.5479C6.56814 99.3306 6.39575 99.0726 6.27814 98.7886Z" fill="black" stroke="white" stroke-width="0.2"/>
<path d="M34.4333 97.8932V97.893V89.4403V89.4402C34.433 89.2086 34.3409 88.9865 34.1772 88.8228L34.1064 88.8935L34.1772 88.8228C34.0134 88.659 33.7914 88.5669 33.5598 88.5667H33.5597H25.1069L25.1068 88.5667C24.8752 88.5669 24.6532 88.659 24.4894 88.8228C24.3257 88.9866 24.2336 89.2086 24.2333 89.4402V89.4403V97.893L24.2333 97.8932C24.2336 98.1247 24.3257 98.3468 24.4894 98.5105C24.6532 98.6743 24.8752 98.7664 25.1068 98.7667H25.1069H33.5597H33.5598C33.7914 98.7664 34.0134 98.6743 34.1772 98.5105C34.3409 98.3468 34.433 98.1247 34.4333 97.8932ZM35.7218 88.5447C35.8394 88.8286 35.9 89.1329 35.9 89.4403V97.893C35.9 98.2004 35.8394 98.5047 35.7218 98.7886C35.6042 99.0726 35.4318 99.3306 35.2145 99.5479C34.9972 99.7652 34.7392 99.9376 34.4553 100.055C34.1713 100.173 33.867 100.233 33.5597 100.233H25.1069C24.7996 100.233 24.4952 100.173 24.2113 100.055C23.9274 99.9376 23.6694 99.7652 23.4521 99.5479C23.2348 99.3306 23.0624 99.0726 22.9448 98.7886C22.8272 98.5047 22.7666 98.2004 22.7666 97.893V89.4403C22.7666 88.8196 23.0132 88.2243 23.4521 87.7855C23.891 87.3466 24.4862 87.1 25.1069 87.1H33.5597C33.867 87.1 34.1713 87.1605 34.4553 87.2781C34.7392 87.3957 34.9972 87.5681 35.2145 87.7854C35.4318 88.0028 35.6042 88.2607 35.7218 88.5447Z" fill="black" stroke="white" stroke-width="0.2"/>
<path d="M7.56667 106.107V106.107V114.56L7.56667 114.56C7.56693 114.791 7.65904 115.013 7.8228 115.177C7.98656 115.341 8.20859 115.433 8.44017 115.433H8.44029H16.8931H16.8932C17.1248 115.433 17.3468 115.341 17.5105 115.177C17.6743 115.013 17.7664 114.791 17.7667 114.56V114.56V106.107V106.107C17.7664 105.875 17.6743 105.653 17.5105 105.489C17.3468 105.326 17.1248 105.234 16.8932 105.233H16.8931H8.44029L8.44018 105.233C8.20859 105.234 7.98656 105.326 7.8228 105.489C7.65905 105.653 7.56693 105.875 7.56667 106.107ZM6.27814 115.455C6.16053 115.171 6.1 114.867 6.1 114.56V106.107C6.1 105.8 6.16054 105.495 6.27815 105.211C6.39576 104.927 6.56814 104.669 6.78546 104.452C7.00277 104.235 7.26076 104.062 7.5447 103.945C7.82864 103.827 8.13296 103.767 8.44029 103.767H16.8931C17.5137 103.767 18.109 104.013 18.5479 104.452C18.9868 104.891 19.2333 105.486 19.2333 106.107V114.56C19.2333 114.867 19.1728 115.171 19.0552 115.455C18.9376 115.739 18.7652 115.997 18.5479 116.215C18.3306 116.432 18.0726 116.604 17.7886 116.722C17.5047 116.839 17.2004 116.9 16.8931 116.9H8.44029C8.13296 116.9 7.82863 116.839 7.5447 116.722C7.26076 116.604 7.00277 116.432 6.78545 116.215C6.56814 115.997 6.39575 115.739 6.27814 115.455Z" fill="black" stroke="white" stroke-width="0.2"/>
<path d="M34.4333 114.56V114.56V106.107V106.107C34.433 105.875 34.3409 105.653 34.1772 105.489C34.0134 105.326 33.7914 105.234 33.5598 105.233H33.5597H25.1069L25.1068 105.233C24.8752 105.234 24.6532 105.326 24.4894 105.489C24.3257 105.653 24.2336 105.875 24.2333 106.107V106.107V114.56L24.2333 114.56C24.2336 114.791 24.3257 115.013 24.4894 115.177C24.6532 115.341 24.8752 115.433 25.1068 115.433H25.1069H33.5597H33.5598C33.7914 115.433 34.0134 115.341 34.1772 115.177C34.3409 115.013 34.433 114.791 34.4333 114.56ZM35.9 106.107V114.56C35.9 114.867 35.8394 115.171 35.7218 115.455C35.6042 115.739 35.4318 115.997 35.2145 116.215C34.9972 116.432 34.7392 116.604 34.4553 116.722C34.1713 116.839 33.867 116.9 33.5597 116.9H25.1069C24.7996 116.9 24.4952 116.839 24.2113 116.722C23.9274 116.604 23.6694 116.432 23.4521 116.215C23.2348 115.997 23.0624 115.739 22.9448 115.455C22.8272 115.171 22.7666 114.867 22.7666 114.56V106.107C22.7666 105.486 23.0132 104.891 23.4521 104.452C23.891 104.013 24.4862 103.767 25.1069 103.767H33.5597C33.867 103.767 34.1713 103.827 34.4553 103.945C34.7392 104.062 34.9972 104.235 35.2145 104.452C35.4318 104.669 35.6042 104.927 35.7218 105.211C35.8394 105.495 35.9 105.8 35.9 106.107Z" fill="black" stroke="white" stroke-width="0.2"/>
<path d="M33.4279 29.2197H10.5721C9.62496 29.2197 8.71661 28.8434 8.04688 28.1737C7.37714 27.5039 7.00089 26.5956 7.00089 25.6484V12.7921C6.98861 12.2445 7.10348 11.7015 7.33647 11.2058C7.56946 10.71 7.91422 10.2751 8.34367 9.9351L19.7716 0.792782C20.401 0.280002 21.1881 0 22 0C22.8119 0 23.599 0.280002 24.2284 0.792782L35.6563 9.9351C36.0858 10.2751 36.4305 10.71 36.6635 11.2058C36.8965 11.7015 37.0114 12.2445 36.9991 12.7921V25.6484C36.9991 26.5956 36.6229 27.5039 35.9531 28.1737C35.2834 28.8434 34.375 29.2197 33.4279 29.2197ZM22 1.44989C21.5122 1.45171 21.0391 1.61777 20.6572 1.92129L9.22933 11.0636C8.98019 11.2652 8.77913 11.5199 8.64075 11.809C8.50237 12.0981 8.43017 12.4144 8.42938 12.7349V25.5913C8.42174 25.8775 8.47153 26.1623 8.57579 26.4289C8.68004 26.6955 8.83667 26.9385 9.0364 27.1435C9.23614 27.3486 9.47494 27.5115 9.7387 27.6228C10.0025 27.734 10.2858 27.7913 10.5721 27.7912H33.4279C33.9962 27.7912 34.5412 27.5654 34.943 27.1636C35.3449 26.7617 35.5706 26.2167 35.5706 25.6484V12.7921C35.5698 12.4716 35.4976 12.1552 35.3592 11.8661C35.2209 11.577 35.0198 11.3224 34.7707 11.1207L23.3428 1.97843C22.9685 1.65431 22.4948 1.46783 22 1.44989Z" fill="black"/>
</svg>
