<svg width="27" height="30" viewBox="0 0 27 30" fill="none" xmlns="http://www.w3.org/2000/svg">
<path d="M11 26.0388H12.4118C12.4118 27.4544 13.5706 28.6019 15 28.6019C16.4294 28.6019 17.5882 27.4544 17.5882 26.0388H19C19 28.2265 17.2091 30 15 30C12.7909 30 11 28.2265 11 26.0388ZM27 23.941V24.4087C27 25.3121 26.2629 26.0388 25.3523 26.0388H4.64771C3.73756 26.0388 3 25.3094 3 24.4087V23.941C3 22.3483 4.24423 21.0426 5.82353 20.9218V15.087C5.82353 10.0671 9.93132 6 15 6C20.0687 6 24.1765 10.0681 24.1765 15.087V20.9217C25.7583 21.0423 27 22.3466 27 23.941ZM23.9368 22.3107C23.2896 22.3107 22.7647 21.787 22.7647 21.149V15.087C22.7647 10.8402 19.289 7.39806 15 7.39806C10.7109 7.39806 7.23529 10.8393 7.23529 15.087V21.149C7.23529 21.7899 6.70775 22.3107 6.06316 22.3107C5.15101 22.3107 4.41176 23.0413 4.41176 23.941V24.4087C4.41176 24.5368 4.51686 24.6408 4.64771 24.6408H25.3523C25.4846 24.6408 25.5882 24.5386 25.5882 24.4087V23.941C25.5882 23.0394 24.8517 22.3107 23.9368 22.3107Z" fill="black"/>
<circle cx="6.5" cy="6.5" r="5.5" fill="#0025FF" stroke="white" stroke-width="2"/>
</svg>
