<svg width="22" height="21" viewBox="0 0 22 21" fill="none" xmlns="http://www.w3.org/2000/svg">
<path d="M10.5516 1.90832C10.7351 1.53673 11.2649 1.53673 11.4484 1.90832L13.9738 7.02455C14.0465 7.17197 14.1871 7.2742 14.3498 7.29798L19.9981 8.12356C20.4081 8.18348 20.5715 8.6874 20.2747 8.97648L16.1884 12.9565C16.0705 13.0714 16.0166 13.2369 16.0445 13.3992L17.0087 19.0213C17.0788 19.4298 16.65 19.7413 16.2832 19.5484L11.2327 16.8924C11.087 16.8158 10.913 16.8158 10.7673 16.8924L5.71682 19.5484C5.35 19.7413 4.92123 19.4298 4.99129 19.0213L5.95554 13.3992C5.98337 13.2369 5.92954 13.0714 5.81161 12.9565L1.72534 8.97648C1.42854 8.6874 1.59193 8.18348 2.00189 8.12356L7.65018 7.29798C7.81286 7.2742 7.95345 7.17197 8.02622 7.02455L10.5516 1.90832Z" stroke="black" stroke-width="1.33333" stroke-linecap="round" stroke-linejoin="round"/>
</svg>
