<svg width="32" height="32" viewBox="0 0 32 32" fill="none" xmlns="http://www.w3.org/2000/svg">
<path d="M15.5516 3.57506C15.735 3.20348 16.2649 3.20348 16.4483 3.57506L20.0037 10.778C20.0765 10.9254 20.2171 11.0276 20.3798 11.0514L28.3314 12.2136C28.7414 12.2736 28.9048 12.7775 28.608 13.0666L22.855 18.6699C22.7371 18.7848 22.6833 18.9504 22.7111 19.1126L24.0687 27.0281C24.1387 27.4365 23.71 27.748 23.3431 27.5551L16.2327 23.8158C16.087 23.7392 15.9129 23.7392 15.7672 23.8158L8.65678 27.5551C8.28996 27.748 7.86119 27.4365 7.93125 27.0281L9.28884 19.1126C9.31667 18.9504 9.26284 18.7848 9.1449 18.6699L3.39197 13.0666C3.09517 12.7775 3.25856 12.2736 3.66852 12.2136L11.6201 11.0514C11.7828 11.0276 11.9234 10.9254 11.9962 10.778L15.5516 3.57506Z" stroke="black" stroke-width="1.33333" stroke-linecap="round" stroke-linejoin="round"/>
</svg>
