<svg width="10" height="10" viewBox="0 0 10 10" fill="none" xmlns="http://www.w3.org/2000/svg">
<path d="M8.78971 1.07555C8.74095 1.02701 8.67494 0.999756 8.60614 0.999756C8.53733 0.999756 8.47132 1.02701 8.42256 1.07555L4.93288 4.56545L1.4432 1.07555C1.39425 1.02788 1.32848 1.00141 1.26015 1.00188C1.19182 1.00235 1.12643 1.02972 1.07814 1.07807C1.02985 1.12641 1.00255 1.19184 1.00216 1.26017C1.00176 1.3285 1.02831 1.39423 1.07604 1.44313L4.56572 4.9326L1.07604 8.42229C1.02735 8.47097 1 8.53701 1 8.60587C1 8.67472 1.02735 8.74076 1.07604 8.78944C1.12473 8.83813 1.19076 8.86549 1.25962 8.86549C1.32847 8.86549 1.39451 8.83813 1.4432 8.78944L4.93288 5.29976L8.42256 8.78944C8.47124 8.83813 8.53728 8.86549 8.60614 8.86549C8.67499 8.86549 8.74103 8.83813 8.78971 8.78944C8.8384 8.74076 8.86575 8.67472 8.86575 8.60587C8.86575 8.53701 8.8384 8.47097 8.78971 8.42229L5.30004 4.9326L8.78971 1.44313C8.83844 1.39438 8.86581 1.32827 8.86581 1.25934C8.86581 1.19041 8.83844 1.12431 8.78971 1.07555V1.07555Z" stroke="black" stroke-width="0.5"/>
</svg>
